<svg width="98" height="64" viewBox="0 0 98 64" fill="none" xmlns="http://www.w3.org/2000/svg">
<path d="M22.9 63.4C8.9 63.4 0.7 53.7 0.7 40.5C0.7 19.3 17.5 -4.76837e-07 34.8 -4.76837e-07C47.2 -4.76837e-07 56.4 7.79999 56.4 23C56.4 44.2 40.5 63.4 22.9 63.4ZM22.1 62.4C33.2 62.4 43.6 33.3 43.6 14.5C43.6 7.6 41.7 0.999999 35.6 0.999999C24.5 0.999999 13.5 28.3 13.5 49.5C13.4 57.9 16.5 62.4 22.1 62.4ZM56.5445 62L56.7445 61.4C58.5445 61.4 62.2445 60.9 64.1445 60.4C66.1445 59.9 67.9445 58.2 68.6445 55.9L81.9445 7.79999C81.0445 8 79.9445 8.1 78.6445 8.1C75.3445 8.1 71.7445 6.9 68.0445 2.6L68.4445 2.2C70.9445 3.7 74.6445 4.5 78.5445 4.5C86.0445 4.5 93.2445 2 96.5445 0.0999982H97.4445C95.1445 4.4 93.4445 10 92.1445 14.8L80.9445 55.4C80.1445 58.1 80.9445 59.4 82.5445 60.2C83.7445 60.9 87.9445 61.4 89.6445 61.4L89.4445 62H56.5445Z" fill="url(#paint0_linear_0_34)"/>
<path d="M13.5 49.5L14.5 49.5119V49.5H13.5ZM22.9 62.4C16.1428 62.4 10.8699 60.0662 7.28135 56.218C3.68426 52.3606 1.7 46.895 1.7 40.5H-0.3C-0.3 47.305 1.81574 53.2894 5.81865 57.582C9.83015 61.8838 15.6572 64.4 22.9 64.4V62.4ZM1.7 40.5C1.7 30.1585 5.80127 20.2589 12.024 12.9482C18.2549 5.62779 26.5226 1 34.8 1V-1C25.7774 -1 16.9951 4.02221 10.501 11.6518C3.99873 19.291 -0.3 29.6415 -0.3 40.5H1.7ZM34.8 1C40.7903 1 45.9163 2.88054 49.5429 6.5071C53.1666 10.1308 55.4 15.6049 55.4 23H57.4C57.4 15.1951 55.0334 9.16918 50.9571 5.09289C46.8837 1.01946 41.2097 -1 34.8 -1V1ZM55.4 23C55.4 33.3562 51.5134 43.2328 45.4801 50.5118C39.4416 57.7971 31.3276 62.4 22.9 62.4V64.4C32.0724 64.4 40.7084 59.4029 47.0199 51.7881C53.3366 44.1672 57.4 33.8438 57.4 23H55.4ZM22.1 63.4C25.3211 63.4 28.3069 61.3019 30.9082 58.2022C33.5337 55.0736 35.921 50.7474 37.9364 45.8827C41.9665 36.1549 44.6 24.05 44.6 14.5H42.6C42.6 23.75 40.0335 35.5951 36.0886 45.1173C34.1165 49.8776 31.8226 54.0014 29.3762 56.9165C26.9056 59.8606 24.4289 61.4 22.1 61.4V63.4ZM44.6 14.5C44.6 10.9867 44.1207 7.43332 42.7846 4.72065C41.4187 1.94739 39.1135 -1.90735e-06 35.6 -1.90735e-06V2C38.1865 2 39.8813 3.35261 40.9904 5.60435C42.1293 7.91668 42.6 11.1133 42.6 14.5H44.6ZM35.6 -1.90735e-06C32.4067 -1.90735e-06 29.3882 1.95339 26.7196 4.92924C24.0318 7.92644 21.5649 12.1048 19.4711 16.8998C15.283 26.4905 12.5 38.7513 12.5 49.5H14.5C14.5 39.0487 17.217 27.0595 21.3039 17.7002C23.3476 13.0202 25.7119 9.04856 28.2086 6.2645C30.7243 3.4591 33.2433 2 35.6 2V-1.90735e-06ZM12.5001 49.4881C12.4489 53.7878 13.2106 57.2457 14.8327 59.658C16.4932 62.1276 18.9897 63.4 22.1 63.4V61.4C19.6103 61.4 17.7568 60.4224 16.4923 58.542C15.1894 56.6043 14.4511 53.6122 14.4999 49.5119L12.5001 49.4881ZM56.5445 62L55.5958 61.6838L55.1571 63H56.5445V62ZM56.7445 61.4V60.4H56.0238L55.7958 61.0838L56.7445 61.4ZM64.1445 60.4L63.902 59.4298L63.89 59.4329L64.1445 60.4ZM68.6445 55.9L69.6012 56.1912L69.6049 56.1789L69.6084 56.1665L68.6445 55.9ZM81.9445 7.8L82.9084 8.0665L83.3518 6.46287L81.7276 6.82381L81.9445 7.8ZM68.0445 2.6L67.3374 1.89289L66.6814 2.54895L67.2865 3.25224L68.0445 2.6ZM68.4445 2.2L68.959 1.3425L68.2895 0.940794L67.7374 1.49289L68.4445 2.2ZM96.5445 0.0999985V-0.900002H96.2772L96.0456 -0.766624L96.5445 0.0999985ZM97.4445 0.0999985L98.3263 0.571651L99.1135 -0.900002H97.4445V0.0999985ZM92.1445 14.8L93.1085 15.0659L93.1098 15.0614L92.1445 14.8ZM80.9445 55.4L81.9033 55.6841L81.906 55.675L81.9085 55.6659L80.9445 55.4ZM82.5445 60.2L83.0484 59.3362L83.0206 59.32L82.9917 59.3056L82.5445 60.2ZM89.6445 61.4L90.5932 61.7162L91.032 60.4H89.6445V61.4ZM89.4445 62V63H90.1653L90.3932 62.3162L89.4445 62ZM57.4932 62.3162L57.6932 61.7162L55.7958 61.0838L55.5958 61.6838L57.4932 62.3162ZM56.7445 62.4C58.6379 62.4 62.4235 61.887 64.399 61.3671L63.89 59.4329C62.0656 59.913 58.4512 60.4 56.7445 60.4V62.4ZM64.3871 61.3701C66.7531 60.7786 68.8067 58.8016 69.6012 56.1912L67.6879 55.6088C67.0823 57.5984 65.536 59.0214 63.902 59.4299L64.3871 61.3701ZM69.6084 56.1665L82.9084 8.0665L80.9807 7.53349L67.6807 55.6335L69.6084 56.1665ZM81.7276 6.82381C80.9212 7.00301 79.8988 7.1 78.6445 7.1V9.1C79.9903 9.1 81.1679 8.99698 82.1615 8.77618L81.7276 6.82381ZM78.6445 7.1C75.6513 7.1 72.323 6.03905 68.8025 1.94775L67.2865 3.25224C71.1661 7.76095 75.0377 9.1 78.6445 9.1V7.1ZM68.7516 3.3071L69.1516 2.9071L67.7374 1.49289L67.3374 1.89289L68.7516 3.3071ZM67.93 3.05749C70.6387 4.68266 74.5374 5.5 78.5445 5.5V3.5C74.7516 3.5 71.2504 2.71734 68.959 1.3425L67.93 3.05749ZM78.5445 5.5C86.2279 5.5 93.5991 2.94979 97.0435 0.966621L96.0456 -0.766624C92.89 1.05021 85.8611 3.5 78.5445 3.5V5.5ZM96.5445 1.1H97.4445V-0.900002H96.5445V1.1ZM96.5628 -0.371655C94.2039 4.03829 92.4798 9.73675 91.1793 14.5386L93.1098 15.0614C94.4093 10.2632 96.0851 4.7617 98.3263 0.571651L96.5628 -0.371655ZM91.1805 14.5341L79.9805 55.1341L81.9085 55.6659L93.1085 15.0659L91.1805 14.5341ZM79.9857 55.1159C79.5521 56.5793 79.5008 57.8286 79.914 58.8786C80.3349 59.9485 81.1647 60.6281 82.0973 61.0944L82.9917 59.3056C82.3244 58.9719 81.9542 58.6015 81.7751 58.1464C81.5882 57.6714 81.5369 56.9207 81.9033 55.6841L79.9857 55.1159ZM82.0407 61.0638C82.4725 61.3157 83.0794 61.5052 83.6816 61.6537C84.3102 61.8088 85.0331 61.9423 85.7583 62.0514C87.2 62.2683 88.728 62.4 89.6445 62.4V60.4C88.8611 60.4 87.439 60.2817 86.0558 60.0736C85.3684 59.9702 84.7101 59.8475 84.1606 59.7119C83.5846 59.5698 83.2165 59.4343 83.0484 59.3362L82.0407 61.0638ZM88.6959 61.0838L88.4958 61.6838L90.3932 62.3162L90.5932 61.7162L88.6959 61.0838ZM89.4445 61H56.5445V63H89.4445V61Z" fill="url(#paint1_linear_0_34)"/>
<defs>
<linearGradient id="paint0_linear_0_34" x1="-24.4046" y1="59.8302" x2="239.775" y2="-83.1465" gradientUnits="userSpaceOnUse">
<stop stop-color="#0A77CB"/>
<stop offset="0.57" stop-color="#49D5DF"/>
</linearGradient>
<linearGradient id="paint1_linear_0_34" x1="-24.4046" y1="59.8302" x2="239.775" y2="-83.1465" gradientUnits="userSpaceOnUse">
<stop stop-color="#0A77CB"/>
<stop offset="0.57" stop-color="#49D5DF"/>
</linearGradient>
</defs>
</svg>
