<svg width="113" height="64" viewBox="0 0 113 64" fill="none" xmlns="http://www.w3.org/2000/svg">
<path d="M22.9 63.4C8.9 63.4 0.7 53.7 0.7 40.5C0.7 19.3 17.5 -4.76837e-07 34.8 -4.76837e-07C47.2 -4.76837e-07 56.4 7.79999 56.4 23C56.4 44.2 40.5 63.4 22.9 63.4ZM22.1 62.4C33.2 62.4 43.6 33.3 43.6 14.5C43.6 7.6 41.7 0.999999 35.6 0.999999C24.5 0.999999 13.5 28.3 13.5 49.5C13.4 57.9 16.5 62.4 22.1 62.4ZM56.6445 62L57.7445 57.6C70.2445 49.9 78.3445 44.1 85.5445 38C96.7445 28.5 101.045 19.5 101.045 10.8C101.045 4.8 98.3445 1.1 92.7445 1.1C82.9445 1.1 75.1445 12.5 74.8445 19.9C74.6445 24.7 76.4445 27.1 80.1445 27.1C83.6445 27.1 86.1445 25 89.2445 22.3L89.7445 22.9C85.0445 28 80.7445 30.6 75.2445 30.6C68.4445 30.6 64.6445 27 64.6445 21.4C64.6445 11.2 78.3445 -4.76837e-07 94.3445 -4.76837e-07C106.045 -4.76837e-07 112.945 4.9 112.945 13.6C112.945 29.3 98.1445 37.8 73.3445 49L68.7445 52H95.6445C101.545 52 104.245 48.5 108.845 42L109.645 42.4L99.6445 62H56.6445Z" fill="url(#paint0_linear_0_39)"/>
<path d="M13.5 49.5L14.5 49.5119V49.5H13.5ZM22.9 62.4C16.1428 62.4 10.8699 60.0662 7.28135 56.218C3.68426 52.3606 1.7 46.895 1.7 40.5H-0.3C-0.3 47.305 1.81574 53.2894 5.81865 57.582C9.83015 61.8838 15.6572 64.4 22.9 64.4V62.4ZM1.7 40.5C1.7 30.1585 5.80127 20.2589 12.024 12.9482C18.2549 5.62779 26.5226 1 34.8 1V-1C25.7774 -1 16.9951 4.02221 10.501 11.6518C3.99873 19.291 -0.3 29.6415 -0.3 40.5H1.7ZM34.8 1C40.7903 1 45.9163 2.88054 49.5429 6.5071C53.1666 10.1308 55.4 15.6049 55.4 23H57.4C57.4 15.1951 55.0334 9.16918 50.9571 5.09289C46.8837 1.01946 41.2097 -1 34.8 -1V1ZM55.4 23C55.4 33.3562 51.5134 43.2328 45.4801 50.5118C39.4416 57.7971 31.3276 62.4 22.9 62.4V64.4C32.0724 64.4 40.7084 59.4029 47.0199 51.7881C53.3366 44.1672 57.4 33.8438 57.4 23H55.4ZM22.1 63.4C25.3211 63.4 28.3069 61.3019 30.9082 58.2022C33.5337 55.0736 35.921 50.7474 37.9364 45.8827C41.9665 36.1549 44.6 24.05 44.6 14.5H42.6C42.6 23.75 40.0335 35.5951 36.0886 45.1173C34.1165 49.8776 31.8226 54.0014 29.3762 56.9165C26.9056 59.8606 24.4289 61.4 22.1 61.4V63.4ZM44.6 14.5C44.6 10.9867 44.1207 7.43332 42.7846 4.72065C41.4187 1.94739 39.1135 -1.90735e-06 35.6 -1.90735e-06V2C38.1865 2 39.8813 3.35261 40.9904 5.60435C42.1293 7.91668 42.6 11.1133 42.6 14.5H44.6ZM35.6 -1.90735e-06C32.4067 -1.90735e-06 29.3882 1.95339 26.7196 4.92924C24.0318 7.92644 21.5649 12.1048 19.4711 16.8998C15.283 26.4905 12.5 38.7513 12.5 49.5H14.5C14.5 39.0487 17.217 27.0595 21.3039 17.7002C23.3476 13.0202 25.7119 9.04856 28.2086 6.2645C30.7243 3.4591 33.2433 2 35.6 2V-1.90735e-06ZM12.5001 49.4881C12.4489 53.7878 13.2106 57.2457 14.8327 59.658C16.4932 62.1276 18.9897 63.4 22.1 63.4V61.4C19.6103 61.4 17.7568 60.4224 16.4923 58.542C15.1894 56.6043 14.4511 53.6122 14.4999 49.5119L12.5001 49.4881ZM56.6445 62L55.6744 61.7575L55.3638 63H56.6445V62ZM57.7445 57.6L57.2201 56.7486L56.8732 56.9622L56.7744 57.3575L57.7445 57.6ZM85.5445 38L86.1909 38.763L86.1914 38.7626L85.5445 38ZM74.8445 19.9L75.8437 19.9416L75.8437 19.9405L74.8445 19.9ZM89.2445 22.3L90.0128 21.6598L89.3585 20.8747L88.5878 21.5459L89.2445 22.3ZM89.7445 22.9L90.4799 23.5777L91.0739 22.9331L90.5128 22.2598L89.7445 22.9ZM73.3445 49L72.9329 48.0886L72.8628 48.1203L72.7983 48.1624L73.3445 49ZM68.7445 52L68.1983 51.1624L65.3806 53H68.7445V52ZM108.845 42L109.292 41.1056L108.524 40.7217L108.028 41.4223L108.845 42ZM109.645 42.4L110.535 42.8545L110.993 41.9564L110.092 41.5056L109.645 42.4ZM99.6445 62V63H100.257L100.535 62.4545L99.6445 62ZM57.6147 62.2425L58.7147 57.8425L56.7744 57.3575L55.6744 61.7575L57.6147 62.2425ZM58.269 58.4514C70.7974 50.7339 78.9415 44.9048 86.1909 38.763L84.8981 37.237C77.7475 43.2952 69.6916 49.0661 57.2201 56.7486L58.269 58.4514ZM86.1914 38.7626C97.5352 29.1407 102.045 19.8848 102.045 10.8H100.045C100.045 19.1152 95.9539 27.8593 84.8977 37.2374L86.1914 38.7626ZM102.045 10.8C102.045 7.66899 101.342 4.98403 99.7675 3.0655C98.1657 1.11422 95.7805 0.0999966 92.7445 0.0999966V2.1C95.3085 2.1 97.0734 2.93577 98.2216 4.33449C99.3967 5.76597 100.045 7.93101 100.045 10.8H102.045ZM92.7445 0.0999966C87.4468 0.0999966 82.7927 3.17291 79.4705 7.07691C76.1529 10.9754 74.0066 15.8816 73.8454 19.8595L75.8437 19.9405C75.9824 16.5183 77.8862 12.0246 80.9936 8.37309C84.0963 4.72708 88.2422 2.1 92.7445 2.1V0.0999966ZM73.8454 19.8584C73.7412 22.3598 74.1448 24.43 75.228 25.8946C76.35 27.4117 78.0635 28.1 80.1445 28.1V26.1C78.5256 26.1 77.4891 25.5883 76.836 24.7054C76.1442 23.77 75.7479 22.2402 75.8437 19.9416L73.8454 19.8584ZM80.1445 28.1C84.0782 28.1 86.8552 25.7072 89.9013 23.0541L88.5878 21.5459C85.4339 24.2928 83.2108 26.1 80.1445 26.1V28.1ZM88.4763 22.9402L88.9763 23.5402L90.5128 22.2598L90.0128 21.6598L88.4763 22.9402ZM89.0092 22.2223C84.403 27.2206 80.3499 29.6 75.2445 29.6V31.6C81.1391 31.6 85.6861 28.7794 90.4799 23.5777L89.0092 22.2223ZM75.2445 29.6C72.0132 29.6 69.6259 28.7455 68.0589 27.3526C66.5061 25.9723 65.6445 23.9628 65.6445 21.4H63.6445C63.6445 24.4372 64.6829 27.0277 66.7302 28.8474C68.7632 30.6545 71.6759 31.6 75.2445 31.6V29.6ZM65.6445 21.4C65.6445 16.7364 68.8048 11.6484 74.0951 7.67456C79.3555 3.7232 86.5717 1 94.3445 1V-1C86.1174 -1 78.4835 1.8768 72.8939 6.07544C67.3342 10.2516 63.6445 15.8636 63.6445 21.4H65.6445ZM94.3445 1C100.075 1 104.49 2.2029 107.445 4.34692C110.357 6.45958 111.945 9.54984 111.945 13.6H113.945C113.945 8.95016 112.082 5.24042 108.619 2.72808C105.2 0.247099 100.314 -1 94.3445 -1V1ZM111.945 13.6C111.945 21.0605 108.459 26.8491 101.817 32.2093C95.1301 37.6051 85.3441 42.4836 72.9329 48.0886L73.7561 49.9114C86.1449 44.3164 96.1589 39.3449 103.073 33.7657C110.03 28.1509 113.945 21.8395 113.945 13.6H111.945ZM72.7983 48.1624L68.1983 51.1624L69.2908 52.8376L73.8908 49.8376L72.7983 48.1624ZM68.7445 53H95.6445V51H68.7445V53ZM95.6445 53C98.8377 53 101.216 52.0368 103.379 50.1998C105.481 48.4152 107.379 45.8024 109.661 42.5777L108.028 41.4223C105.71 44.6976 103.958 47.0848 102.085 48.6752C100.273 50.2132 98.3514 51 95.6445 51V53ZM108.397 42.8944L109.197 43.2944L110.092 41.5056L109.292 41.1056L108.397 42.8944ZM108.754 41.9455L98.7538 61.5455L100.535 62.4545L110.535 42.8545L108.754 41.9455ZM99.6445 61H56.6445V63H99.6445V61Z" fill="url(#paint1_linear_0_39)"/>
<defs>
<linearGradient id="paint0_linear_0_39" x1="-27.314" y1="59.8302" x2="254.255" y2="-113.27" gradientUnits="userSpaceOnUse">
<stop stop-color="#0A77CB"/>
<stop offset="0.57" stop-color="#49D5DF"/>
</linearGradient>
<linearGradient id="paint1_linear_0_39" x1="-27.314" y1="59.8302" x2="254.255" y2="-113.27" gradientUnits="userSpaceOnUse">
<stop stop-color="#0A77CB"/>
<stop offset="0.57" stop-color="#49D5DF"/>
</linearGradient>
</defs>
</svg>
