<svg width="114" height="65" viewBox="0 0 114 65" fill="none" xmlns="http://www.w3.org/2000/svg">
<path d="M22.9 63.4C8.9 63.4 0.7 53.7 0.7 40.5C0.7 19.3 17.5 -4.76837e-07 34.8 -4.76837e-07C47.2 -4.76837e-07 56.4 7.79999 56.4 23C56.4 44.2 40.5 63.4 22.9 63.4ZM22.1 62.4C33.2 62.4 43.6 33.3 43.6 14.5C43.6 7.6 41.7 0.999999 35.6 0.999999C24.5 0.999999 13.5 28.3 13.5 49.5C13.4 57.9 16.5 62.4 22.1 62.4ZM76.1445 64.6C66.8445 64.6 56.7445 61 56.7445 51.8C57.0445 46.1 60.9445 40.9 66.6445 40.9C70.1445 40.9 71.9445 42.9 71.8445 45.3C71.8445 52.5 63.3445 49.9 63.3445 55.5C63.3445 60.7 67.9445 63.4 73.8445 63.4C84.8445 63.4 95.5445 50.6 96.0445 38.6C96.3445 33.8 94.4445 30.6 90.3445 30.6C86.4445 30.6 82.7445 33.4 78.8445 36.1L77.9445 34.5C95.2445 25.7 101.745 19.8 102.045 10.8C102.345 4.8 99.7445 1.1 94.1445 1.1C87.1445 1.1 79.5445 8.3 79.2445 15.8C79.1445 19.1 80.9445 20.7 83.2445 20.7C85.2445 20.7 87.8445 19.8 90.1445 17.9L90.6445 18.5C86.7445 22.1 82.7445 24.8 77.6445 24.8C72.1445 24.8 69.0445 22.1 69.1445 17.4C69.1445 8.3 82.6445 -4.76837e-07 96.5445 -4.76837e-07C107.445 -4.76837e-07 113.845 5.1 113.745 12.4C113.645 21.1 105.545 26.6 91.5445 28.3L89.3445 29.6C90.0445 29.5 92.7445 29.5 93.4445 29.5C101.845 29.5 108.045 32.8 108.045 40.9C108.045 55.3 93.2445 64.6 76.1445 64.6Z" fill="url(#paint0_linear_0_47)"/>
<path d="M13.5 49.5L14.5 49.5119V49.5H13.5ZM22.9 62.4C16.1428 62.4 10.8699 60.0662 7.28135 56.218C3.68426 52.3606 1.7 46.895 1.7 40.5H-0.3C-0.3 47.305 1.81574 53.2894 5.81865 57.582C9.83015 61.8838 15.6572 64.4 22.9 64.4V62.4ZM1.7 40.5C1.7 30.1585 5.80127 20.2589 12.024 12.9482C18.2549 5.62779 26.5226 1 34.8 1V-1C25.7774 -1 16.9951 4.02221 10.501 11.6518C3.99873 19.291 -0.3 29.6415 -0.3 40.5H1.7ZM34.8 1C40.7903 1 45.9163 2.88054 49.5429 6.5071C53.1666 10.1308 55.4 15.6049 55.4 23H57.4C57.4 15.1951 55.0334 9.16918 50.9571 5.09289C46.8837 1.01946 41.2097 -1 34.8 -1V1ZM55.4 23C55.4 33.3562 51.5134 43.2328 45.4801 50.5118C39.4416 57.7971 31.3276 62.4 22.9 62.4V64.4C32.0724 64.4 40.7084 59.4029 47.0199 51.7881C53.3366 44.1672 57.4 33.8438 57.4 23H55.4ZM22.1 63.4C25.3211 63.4 28.3069 61.3019 30.9082 58.2022C33.5337 55.0736 35.921 50.7474 37.9364 45.8827C41.9665 36.1549 44.6 24.05 44.6 14.5H42.6C42.6 23.75 40.0335 35.5951 36.0886 45.1173C34.1165 49.8776 31.8226 54.0014 29.3762 56.9165C26.9056 59.8606 24.4289 61.4 22.1 61.4V63.4ZM44.6 14.5C44.6 10.9867 44.1207 7.43332 42.7846 4.72065C41.4187 1.94739 39.1135 -1.90735e-06 35.6 -1.90735e-06V2C38.1865 2 39.8813 3.35261 40.9904 5.60435C42.1293 7.91668 42.6 11.1133 42.6 14.5H44.6ZM35.6 -1.90735e-06C32.4067 -1.90735e-06 29.3882 1.95339 26.7196 4.92924C24.0318 7.92644 21.5649 12.1048 19.4711 16.8998C15.283 26.4905 12.5 38.7513 12.5 49.5H14.5C14.5 39.0487 17.217 27.0595 21.3039 17.7002C23.3476 13.0202 25.7119 9.04856 28.2086 6.2645C30.7243 3.4591 33.2433 2 35.6 2V-1.90735e-06ZM12.5001 49.4881C12.4489 53.7878 13.2106 57.2457 14.8327 59.658C16.4932 62.1276 18.9897 63.4 22.1 63.4V61.4C19.6103 61.4 17.7568 60.4224 16.4923 58.542C15.1894 56.6043 14.4511 53.6122 14.4999 49.5119L12.5001 49.4881ZM56.7445 51.8L55.7459 51.7474L55.7445 51.7737V51.8H56.7445ZM71.8445 45.3L70.8454 45.2584L70.8445 45.2792V45.3H71.8445ZM96.0445 38.6L95.0465 38.5376L95.0458 38.548L95.0454 38.5584L96.0445 38.6ZM78.8445 36.1L77.973 36.5903L78.5112 37.5471L79.4137 36.9222L78.8445 36.1ZM77.9445 34.5L77.4911 33.6087L76.5617 34.0814L77.073 34.9903L77.9445 34.5ZM102.045 10.8L101.046 10.7501L101.045 10.7584L101.045 10.7667L102.045 10.8ZM79.2445 15.8L78.2453 15.76L78.245 15.7697L79.2445 15.8ZM90.1445 17.9L90.9128 17.2598L90.2753 16.4949L89.5077 17.129L90.1445 17.9ZM90.6445 18.5L91.3228 19.2348L92.0213 18.5901L91.4128 17.8598L90.6445 18.5ZM69.1445 17.4L70.1443 17.4213L70.1445 17.4106V17.4H69.1445ZM113.745 12.4L112.745 12.3863L112.745 12.3885L113.745 12.4ZM91.5445 28.3L91.424 27.3073L91.2161 27.3325L91.0358 27.4391L91.5445 28.3ZM89.3445 29.6L88.8358 28.7391L89.486 30.59L89.3445 29.6ZM76.1445 63.6C71.5998 63.6 66.9339 62.7168 63.4429 60.776C59.9901 58.8564 57.7445 55.9513 57.7445 51.8H55.7445C55.7445 56.8487 58.549 60.3436 62.4711 62.524C66.3551 64.6833 71.3893 65.6 76.1445 65.6V63.6ZM57.7431 51.8526C58.0257 46.4846 61.6552 41.9 66.6445 41.9V39.9C60.2339 39.9 56.0634 45.7154 55.7459 51.7474L57.7431 51.8526ZM66.6445 41.9C68.2073 41.9 69.2705 42.3444 69.9198 42.938C70.5611 43.5244 70.884 44.3313 70.8454 45.2584L72.8437 45.3416C72.905 43.8687 72.378 42.4756 71.2693 41.462C70.1685 40.4556 68.5818 39.9 66.6445 39.9V41.9ZM70.8445 45.3C70.8445 46.8777 70.3893 47.8125 69.7844 48.4625C69.1395 49.1554 68.2491 49.612 67.1864 50.0871C66.1959 50.5299 64.9663 51.019 64.0369 51.7843C63.022 52.6202 62.3445 53.7853 62.3445 55.5H64.3445C64.3445 54.4147 64.7296 53.8048 65.3084 53.3282C65.9728 52.781 66.8682 52.4201 68.0027 51.9129C69.065 51.438 70.2995 50.8446 71.2484 49.825C72.2373 48.7625 72.8445 47.3223 72.8445 45.3H70.8445ZM62.3445 55.5C62.3445 58.4398 63.6649 60.7144 65.8075 62.2185C67.9129 63.6964 70.7592 64.4 73.8445 64.4V62.4C71.0299 62.4 68.6262 61.7536 66.9566 60.5815C65.3242 59.4356 64.3445 57.7602 64.3445 55.5H62.3445ZM73.8445 64.4C79.7287 64.4 85.406 60.9912 89.6346 56.1585C93.8712 51.3167 96.7827 44.9059 97.0437 38.6416L95.0454 38.5584C94.8064 44.2941 92.1179 50.2833 88.1295 54.8415C84.133 59.4088 78.9604 62.4 73.8445 62.4V64.4ZM97.0426 38.6624C97.2002 36.1406 96.7926 33.8899 95.672 32.2385C94.5163 30.5354 92.6895 29.6 90.3445 29.6V31.6C92.0996 31.6 93.2728 32.2646 94.0171 33.3615C94.7964 34.5101 95.1889 36.2594 95.0465 38.5376L97.0426 38.6624ZM90.3445 29.6C88.1558 29.6 86.0835 30.3851 84.1153 31.4598C82.1556 32.5299 80.1963 33.9479 78.2753 35.2778L79.4137 36.9222C81.3928 35.5521 83.2335 34.2201 85.0738 33.2152C86.9056 32.2149 88.6333 31.6 90.3445 31.6V29.6ZM79.7161 35.6097L78.8161 34.0097L77.073 34.9903L77.973 36.5903L79.7161 35.6097ZM78.3979 35.3913C87.059 30.9857 93.1249 27.2549 97.0648 23.4438C101.052 19.5867 102.884 15.6243 103.044 10.8333L101.045 10.7667C100.905 14.9757 99.3369 18.4633 95.6743 22.0062C91.9642 25.5951 86.1301 29.2143 77.4911 33.6087L78.3979 35.3913ZM103.043 10.8499C103.2 7.71682 102.61 5.01798 101.094 3.08321C99.5507 1.11345 97.1778 0.0999966 94.1445 0.0999966V2.1C96.7113 2.1 98.4384 2.93654 99.5199 4.31678C100.629 5.73201 101.189 7.88318 101.046 10.7501L103.043 10.8499ZM94.1445 0.0999966C90.3168 0.0999966 86.4293 2.05469 83.4845 4.9209C80.5361 7.79071 78.4079 11.6948 78.2453 15.76L80.2437 15.84C80.3811 12.4052 82.2029 8.95929 84.8795 6.3541C87.5598 3.74531 90.9723 2.1 94.1445 2.1V0.0999966ZM78.245 15.7697C78.1895 17.6024 78.6597 19.1013 79.5984 20.1533C80.5425 21.2114 81.8569 21.7 83.2445 21.7V19.7C82.3322 19.7 81.5965 19.3886 81.0907 18.8217C80.5793 18.2487 80.1996 17.2976 80.2441 15.8303L78.245 15.7697ZM83.2445 21.7C85.5127 21.7 88.3318 20.6945 90.7814 18.671L89.5077 17.129C87.3572 18.9055 84.9763 19.7 83.2445 19.7V21.7ZM89.3763 18.5402L89.8763 19.1402L91.4128 17.8598L90.9128 17.2598L89.3763 18.5402ZM89.9663 17.7652C86.1136 21.3215 82.3539 23.8 77.6445 23.8V25.8C83.1352 25.8 87.3755 22.8785 91.3228 19.2348L89.9663 17.7652ZM77.6445 23.8C75.0437 23.8 73.1599 23.1607 71.9512 22.1083C70.7664 21.0767 70.0993 19.5345 70.1443 17.4213L68.1448 17.3787C68.0897 19.9655 68.9226 22.1232 70.6379 23.6167C72.3291 25.0893 74.7454 25.8 77.6445 25.8V23.8ZM70.1445 17.4C70.1445 13.3559 73.1723 9.27083 78.1641 6.13422C83.1147 3.02345 89.7798 1 96.5445 1V-1C89.4093 -1 82.3744 1.12655 77.1 4.44078C71.8667 7.72917 68.1445 12.3441 68.1445 17.4H70.1445ZM96.5445 1C101.852 1 105.946 2.24324 108.674 4.26575C111.373 6.26732 112.79 9.06701 112.745 12.3863L114.744 12.4137C114.799 8.43299 113.066 5.03267 109.865 2.65924C106.693 0.306757 102.137 -1 96.5445 -1V1ZM112.745 12.3885C112.699 16.3766 110.841 19.6431 107.28 22.1582C103.681 24.7004 98.3387 26.4676 91.424 27.3073L91.6651 29.2927C98.7503 28.4324 104.458 26.5996 108.434 23.7918C112.448 20.9569 114.69 17.1234 114.744 12.4115L112.745 12.3885ZM91.0358 27.4391L88.8358 28.7391L89.8533 30.4609L92.0533 29.1609L91.0358 27.4391ZM89.486 30.59C89.7579 30.5511 90.5325 30.5253 91.4092 30.5124C92.2511 30.5 93.0945 30.5 93.4445 30.5V28.5C93.0945 28.5 92.2379 28.5 91.3798 28.5126C90.5566 28.5247 89.6311 28.5489 89.2031 28.6101L89.486 30.59ZM93.4445 30.5C97.5382 30.5 100.953 31.3081 103.317 32.9791C105.627 34.6117 107.045 37.1431 107.045 40.9H109.045C109.045 36.5569 107.362 33.3883 104.472 31.3459C101.636 29.3419 97.7508 28.5 93.4445 28.5V30.5ZM107.045 40.9C107.045 47.7159 103.555 53.3587 97.9299 57.3333C92.2897 61.3189 84.5257 63.6 76.1445 63.6V65.6C84.8633 65.6 93.0493 63.2311 99.0841 58.9667C105.134 54.6913 109.045 48.4841 109.045 40.9H107.045Z" fill="url(#paint1_linear_0_47)"/>
<defs>
<linearGradient id="paint0_linear_0_47" x1="-27.1062" y1="59.8302" x2="253.365" y2="-111.122" gradientUnits="userSpaceOnUse">
<stop stop-color="#0A77CB"/>
<stop offset="0.57" stop-color="#49D5DF"/>
</linearGradient>
<linearGradient id="paint1_linear_0_47" x1="-27.1062" y1="59.8302" x2="253.365" y2="-111.122" gradientUnits="userSpaceOnUse">
<stop stop-color="#0A77CB"/>
<stop offset="0.57" stop-color="#49D5DF"/>
</linearGradient>
</defs>
</svg>
