<svg width="108" height="80" viewBox="0 0 108 80" fill="none" xmlns="http://www.w3.org/2000/svg">
<path d="M22.9 63.4C8.9 63.4 0.7 53.7 0.7 40.5C0.7 19.3 17.5 -4.76837e-07 34.8 -4.76837e-07C47.2 -4.76837e-07 56.4 7.79999 56.4 23C56.4 44.2 40.5 63.4 22.9 63.4ZM22.1 62.4C33.2 62.4 43.6 33.3 43.6 14.5C43.6 7.6 41.7 0.999999 35.6 0.999999C24.5 0.999999 13.5 28.3 13.5 49.5C13.4 57.9 16.5 62.4 22.1 62.4ZM75.5914 79.7L81.9914 61.4C77.1914 60.6 72.3914 56.7 64.4914 56.7C63.3914 56.7 62.5914 56.8 61.4914 56.9C58.6914 59.4 55.2914 62.5 53.1914 62.5C50.8914 62.5 49.1914 61.7 49.1914 59.4C49.1914 57 51.7914 56.2 54.6914 55.9C56.7914 55.8 58.9914 55.8 61.0914 55.8C70.4914 47.5 78.2914 25.4 85.7914 -4.76837e-07H99.0914C91.6914 22.9 77.4914 45.6 62.2914 56C65.3914 55.5 68.2914 54.9 72.3914 54.9C76.6914 54.9 79.8914 55.6 83.7914 56.1L92.1914 32.5H103.591L94.7914 56.5C99.2914 56.2 104.291 54.5 107.391 50.8L107.991 51.3C104.391 56.5 99.7914 60.9 92.9914 61.8L86.6914 79.7H75.5914Z" fill="url(#paint0_linear_0_48)"/>
<path d="M13.5 49.5L14.5 49.5119V49.5H13.5ZM22.9 62.4C16.1428 62.4 10.8699 60.0662 7.28135 56.218C3.68426 52.3606 1.7 46.895 1.7 40.5H-0.3C-0.3 47.305 1.81574 53.2894 5.81865 57.582C9.83015 61.8838 15.6572 64.4 22.9 64.4V62.4ZM1.7 40.5C1.7 30.1585 5.80127 20.2589 12.024 12.9482C18.2549 5.62779 26.5226 1 34.8 1V-1C25.7774 -1 16.9951 4.02221 10.501 11.6518C3.99873 19.291 -0.3 29.6415 -0.3 40.5H1.7ZM34.8 1C40.7903 1 45.9163 2.88054 49.5429 6.5071C53.1666 10.1308 55.4 15.6049 55.4 23H57.4C57.4 15.1951 55.0334 9.16918 50.9571 5.09289C46.8837 1.01946 41.2097 -1 34.8 -1V1ZM55.4 23C55.4 33.3562 51.5134 43.2328 45.4801 50.5118C39.4416 57.7971 31.3276 62.4 22.9 62.4V64.4C32.0724 64.4 40.7084 59.4029 47.0199 51.7881C53.3366 44.1672 57.4 33.8438 57.4 23H55.4ZM22.1 63.4C25.3211 63.4 28.3069 61.3019 30.9082 58.2022C33.5337 55.0736 35.921 50.7474 37.9364 45.8827C41.9665 36.1549 44.6 24.05 44.6 14.5H42.6C42.6 23.75 40.0335 35.5951 36.0886 45.1173C34.1165 49.8776 31.8226 54.0014 29.3762 56.9165C26.9056 59.8606 24.4289 61.4 22.1 61.4V63.4ZM44.6 14.5C44.6 10.9867 44.1207 7.43332 42.7846 4.72065C41.4187 1.94739 39.1135 -1.90735e-06 35.6 -1.90735e-06V2C38.1865 2 39.8813 3.35261 40.9904 5.60435C42.1293 7.91668 42.6 11.1133 42.6 14.5H44.6ZM35.6 -1.90735e-06C32.4067 -1.90735e-06 29.3882 1.95339 26.7196 4.92924C24.0318 7.92644 21.5649 12.1048 19.4711 16.8998C15.283 26.4905 12.5 38.7513 12.5 49.5H14.5C14.5 39.0487 17.217 27.0595 21.3039 17.7002C23.3476 13.0202 25.7119 9.04856 28.2086 6.2645C30.7243 3.4591 33.2433 2 35.6 2V-1.90735e-06ZM12.5001 49.4881C12.4489 53.7878 13.2106 57.2457 14.8327 59.658C16.4932 62.1276 18.9897 63.4 22.1 63.4V61.4C19.6103 61.4 17.7568 60.4224 16.4923 58.542C15.1894 56.6043 14.4511 53.6122 14.4999 49.5119L12.5001 49.4881ZM75.5914 79.7L74.6475 79.3699L74.1823 80.7H75.5914V79.7ZM81.9914 61.4L82.9353 61.7301L83.3275 60.6089L82.1558 60.4136L81.9914 61.4ZM61.4914 56.9L61.4009 55.9041L61.0718 55.934L60.8254 56.1541L61.4914 56.9ZM54.6914 55.9L54.6438 54.9011L54.6161 54.9025L54.5885 54.9053L54.6914 55.9ZM61.0914 55.8V56.8H61.4697L61.7533 56.5496L61.0914 55.8ZM85.7914 0V-1H85.044L84.8323 -0.28319L85.7914 0ZM99.0914 0L100.043 0.307487L100.465 -1H99.0914V0ZM62.2914 56L61.7267 55.1747L62.4506 56.9872L62.2914 56ZM83.7914 56.1L83.6642 57.0919L84.4634 57.1943L84.7335 56.4353L83.7914 56.1ZM92.1914 32.5V31.5H91.4859L91.2493 32.1647L92.1914 32.5ZM103.591 32.5L104.53 32.8443L105.023 31.5H103.591V32.5ZM94.7914 56.5L93.8525 56.1557L93.3229 57.6001L94.8579 57.4978L94.7914 56.5ZM107.391 50.8L108.032 50.0318L107.265 49.3933L106.625 50.1578L107.391 50.8ZM107.991 51.3L108.814 51.8692L109.334 51.1173L108.632 50.5318L107.991 51.3ZM92.9914 61.8L92.8602 60.8086L92.2519 60.8892L92.0481 61.468L92.9914 61.8ZM86.6914 79.7V80.7H87.3996L87.6347 80.032L86.6914 79.7ZM76.5353 80.0301L82.9353 61.7301L81.0475 61.0699L74.6475 79.3699L76.5353 80.0301ZM82.1558 60.4136C79.8897 60.0359 77.6721 58.9386 74.7637 57.817C71.9223 56.7212 68.6161 55.7 64.4914 55.7V57.7C68.2667 57.7 71.3105 58.6288 74.0441 59.683C76.7107 60.7114 79.2931 61.9641 81.827 62.3864L82.1558 60.4136ZM64.4914 55.7C63.333 55.7 62.4701 55.8069 61.4009 55.9041L61.5819 57.8959C62.7127 57.7931 63.4498 57.7 64.4914 57.7V55.7ZM60.8254 56.1541C59.4125 57.4156 57.9005 58.7804 56.4822 59.835C55.7748 60.3611 55.1176 60.7893 54.5324 61.0826C53.933 61.383 53.4905 61.5 53.1914 61.5V63.5C53.9423 63.5 54.7123 63.2295 55.4285 62.8706C56.159 62.5045 56.9205 62.0014 57.6756 61.44C59.1823 60.3196 60.7703 58.8844 62.1574 57.6459L60.8254 56.1541ZM53.1914 61.5C52.1271 61.5 51.3646 61.3095 50.8936 60.9872C50.4893 60.7106 50.1914 60.2658 50.1914 59.4H48.1914C48.1914 60.8342 48.7435 61.9394 49.7642 62.6378C50.7182 63.2905 51.9557 63.5 53.1914 63.5V61.5ZM50.1914 59.4C50.1914 58.665 50.5437 58.1594 51.3228 57.7458C52.1587 57.302 53.3745 57.0416 54.7943 56.8947L54.5885 54.9053C53.1083 55.0584 51.5741 55.348 50.385 55.9792C49.1391 56.6406 48.1914 57.735 48.1914 59.4H50.1914ZM54.739 56.8989C56.8111 56.8002 58.9869 56.8 61.0914 56.8V54.8C58.9959 54.8 56.7717 54.7998 54.6438 54.9011L54.739 56.8989ZM61.7533 56.5496C66.6366 52.2378 71.0077 44.4508 75.0768 34.6975C79.1609 24.9082 82.9983 12.9907 86.7505 0.283188L84.8323 -0.28319C81.0845 12.4093 77.2719 24.2418 73.231 33.9275C69.1751 43.6492 64.9462 51.0622 60.4295 55.0504L61.7533 56.5496ZM85.7914 1H99.0914V-1H85.7914V1ZM98.1399 -0.307489C90.7763 22.4799 76.6741 44.9475 61.7267 55.1747L62.8561 56.8253C78.3087 46.2525 92.6066 23.3201 100.043 0.307487L98.1399 -0.307489ZM62.4506 56.9872C65.5847 56.4817 68.3908 55.9 72.3914 55.9V53.9C68.192 53.9 65.1981 54.5183 62.1322 55.0128L62.4506 56.9872ZM72.3914 55.9C76.6063 55.9 79.6748 56.5804 83.6642 57.0919L83.9186 55.1081C80.1081 54.6196 76.7765 53.9 72.3914 53.9V55.9ZM84.7335 56.4353L93.1335 32.8353L91.2493 32.1647L82.8493 55.7647L84.7335 56.4353ZM92.1914 33.5H103.591V31.5H92.1914V33.5ZM102.653 32.1557L93.8525 56.1557L95.7303 56.8443L104.53 32.8443L102.653 32.1557ZM94.8579 57.4978C99.5172 57.1872 104.822 55.4244 108.158 51.4422L106.625 50.1578C103.761 53.5756 99.0656 55.2128 94.7249 55.5022L94.8579 57.4978ZM106.751 51.5682L107.351 52.0682L108.632 50.5318L108.032 50.0318L106.751 51.5682ZM107.169 50.7308C103.636 55.8345 99.2509 59.9628 92.8602 60.8086L93.1226 62.7914C100.332 61.8372 105.147 57.1655 108.814 51.8692L107.169 50.7308ZM92.0481 61.468L85.7481 79.368L87.6347 80.032L93.9347 62.132L92.0481 61.468ZM86.6914 78.7H75.5914V80.7H86.6914V78.7Z" fill="url(#paint1_linear_0_48)"/>
<defs>
<linearGradient id="paint0_linear_0_48" x1="-26.6906" y1="59.8302" x2="251.521" y2="-106.821" gradientUnits="userSpaceOnUse">
<stop stop-color="#0A77CB"/>
<stop offset="0.57" stop-color="#49D5DF"/>
</linearGradient>
<linearGradient id="paint1_linear_0_48" x1="-26.6906" y1="59.8302" x2="251.521" y2="-106.821" gradientUnits="userSpaceOnUse">
<stop stop-color="#0A77CB"/>
<stop offset="0.57" stop-color="#49D5DF"/>
</linearGradient>
</defs>
</svg>
