<svg width="117" height="65" viewBox="0 0 117 65" fill="none" xmlns="http://www.w3.org/2000/svg">
<path d="M22.9 64.4C8.9 64.4 0.7 54.7 0.7 41.5C0.7 20.3 17.5 1 34.8 1C47.2 1 56.4 8.79999 56.4 24C56.4 45.2 40.5 64.4 22.9 64.4ZM22.1 63.4C33.2 63.4 43.6 34.3 43.6 15.5C43.6 8.6 41.7 2 35.6 2C24.5 2 13.5 29.3 13.5 50.5C13.4 58.9 16.5 63.4 22.1 63.4ZM74.5445 64.4C66.0445 64.4 56.6445 60.3 56.6445 52.6C56.6445 46.8 61.6445 44 65.1445 44C68.6445 44 70.3445 45.8 70.3445 48.6C70.3445 52.8 66.9445 54.1 65.9445 57.5C65.6445 61.4 69.3445 63.5 74.1445 63.5C84.8445 63.5 92.3445 51.1 92.8445 38.4C93.2445 31.3 89.8445 26.9 83.1445 26.9C76.4445 26.9 70.4445 29.6 67.3445 35.1L66.2445 34.8L81.1445 1.3H81.9445C83.0445 3 88.8445 5.2 96.7445 5.2C103.545 5.2 110.945 3.5 115.645 0.199998L116.145 0.699997C107.845 11.9 97.5445 15.3 84.4445 15.3C81.8445 15.3 77.2445 14.9 76.4445 14.9L69.6445 29.8C73.6445 27.1 78.7445 25.5 85.1445 25.5C97.6445 25.5 105.745 31.6 105.445 41.5C105.145 55.3 91.6445 64.4 74.5445 64.4Z" fill="url(#paint0_linear_0_49)"/>
<path d="M13.5 50.5L14.5 50.5119V50.5H13.5ZM22.9 63.4C16.1428 63.4 10.8699 61.0662 7.28135 57.218C3.68426 53.3606 1.7 47.895 1.7 41.5H-0.3C-0.3 48.305 1.81574 54.2894 5.81865 58.582C9.83015 62.8838 15.6572 65.4 22.9 65.4V63.4ZM1.7 41.5C1.7 31.1585 5.80127 21.2589 12.024 13.9482C18.2549 6.62779 26.5226 2 34.8 2V0C25.7774 0 16.9951 5.02221 10.501 12.6518C3.99873 20.291 -0.3 30.6415 -0.3 41.5H1.7ZM34.8 2C40.7903 2 45.9163 3.88054 49.5429 7.5071C53.1666 11.1308 55.4 16.6049 55.4 24H57.4C57.4 16.1951 55.0334 10.1692 50.9571 6.09289C46.8837 2.01946 41.2097 0 34.8 0V2ZM55.4 24C55.4 34.3562 51.5134 44.2328 45.4801 51.5118C39.4416 58.7971 31.3276 63.4 22.9 63.4V65.4C32.0724 65.4 40.7084 60.4029 47.0199 52.7881C53.3366 45.1672 57.4 34.8438 57.4 24H55.4ZM22.1 64.4C25.3211 64.4 28.3069 62.3019 30.9082 59.2022C33.5337 56.0736 35.921 51.7474 37.9364 46.8827C41.9665 37.1549 44.6 25.05 44.6 15.5H42.6C42.6 24.75 40.0335 36.5951 36.0886 46.1173C34.1165 50.8776 31.8226 55.0014 29.3762 57.9165C26.9056 60.8606 24.4289 62.4 22.1 62.4V64.4ZM44.6 15.5C44.6 11.9867 44.1207 8.43332 42.7846 5.72065C41.4187 2.94739 39.1135 0.999998 35.6 0.999998V3C38.1865 3 39.8813 4.35261 40.9904 6.60435C42.1293 8.91668 42.6 12.1133 42.6 15.5H44.6ZM35.6 0.999998C32.4067 0.999998 29.3882 2.95339 26.7196 5.92924C24.0318 8.92644 21.5649 13.1048 19.4711 17.8998C15.283 27.4905 12.5 39.7513 12.5 50.5H14.5C14.5 40.0487 17.217 28.0595 21.3039 18.7002C23.3476 14.0202 25.7119 10.0486 28.2086 7.2645C30.7243 4.4591 33.2433 3 35.6 3V0.999998ZM12.5001 50.4881C12.4489 54.7878 13.2106 58.2457 14.8327 60.658C16.4932 63.1276 18.9897 64.4 22.1 64.4V62.4C19.6103 62.4 17.7568 61.4224 16.4923 59.542C15.1894 57.6043 14.4511 54.6122 14.4999 50.5119L12.5001 50.4881ZM65.9445 57.5L64.9852 57.2178L64.9555 57.3186L64.9475 57.4233L65.9445 57.5ZM92.8445 38.4L91.8461 38.3438L91.8456 38.3522L91.8453 38.3607L92.8445 38.4ZM67.3445 35.1L67.0814 36.0648L67.8331 36.2698L68.2157 35.591L67.3445 35.1ZM66.2445 34.8L65.3308 34.3936L64.8573 35.4582L65.9814 35.7648L66.2445 34.8ZM81.1445 1.3V0.299995H80.4949L80.2308 0.893604L81.1445 1.3ZM81.9445 1.3L82.7841 0.756744L82.4886 0.299995H81.9445V1.3ZM115.645 0.199997L116.352 -0.507109L115.758 -1.10122L115.07 -0.618416L115.645 0.199997ZM116.145 0.699997L116.948 1.2954L117.461 0.602615L116.852 -0.00710869L116.145 0.699997ZM76.4445 14.9V13.9H75.8017L75.5348 14.4848L76.4445 14.9ZM69.6445 29.8L68.7348 29.3848L67.2602 32.6159L70.204 30.6288L69.6445 29.8ZM105.445 41.5L104.445 41.4697L104.445 41.4783L105.445 41.5ZM74.5445 63.4C70.4348 63.4 66.1413 62.4051 62.9103 60.5234C59.6871 58.6461 57.6445 55.9757 57.6445 52.6H55.6445C55.6445 56.9243 58.3019 60.1539 61.9037 62.2516C65.4978 64.3449 70.1543 65.4 74.5445 65.4V63.4ZM57.6445 52.6C57.6445 47.5041 62.0317 45 65.1445 45V43C61.2574 43 55.6445 46.0959 55.6445 52.6H57.6445ZM65.1445 45C66.7325 45 67.7564 45.4075 68.377 45.9832C68.9873 46.5492 69.3445 47.4049 69.3445 48.6H71.3445C71.3445 46.9951 70.8518 45.5508 69.7371 44.5168C68.6327 43.4925 67.0565 43 65.1445 43V45ZM69.3445 48.6C69.3445 50.3756 68.6489 51.5346 67.7252 52.7425C66.8264 53.9178 65.5525 55.2891 64.9852 57.2178L66.9039 57.7822C67.3366 56.3109 68.2626 55.3322 69.3139 53.9575C70.3402 52.6154 71.3445 51.0244 71.3445 48.6H69.3445ZM64.9475 57.4233C64.7673 59.7651 65.8155 61.5954 67.5693 62.7892C69.2763 63.951 71.6202 64.5 74.1445 64.5V62.5C71.8689 62.5 69.9628 61.999 68.6947 61.1358C67.4735 60.3046 66.8217 59.1349 66.9416 57.5767L64.9475 57.4233ZM74.1445 64.5C79.9197 64.5 84.7418 61.148 88.1393 56.2852C91.5361 51.4233 93.5871 44.9582 93.8438 38.4393L91.8453 38.3607C91.602 44.5418 89.6529 50.6267 86.4998 55.1398C83.3472 59.652 79.0694 62.5 74.1445 62.5V64.5ZM93.8429 38.4562C94.0517 34.7506 93.278 31.596 91.4288 29.3516C89.5607 27.0842 86.7228 25.9 83.1445 25.9V27.9C86.2662 27.9 88.4784 28.9158 89.8852 30.6234C91.3111 32.354 92.0373 34.9494 91.8461 38.3438L93.8429 38.4562ZM83.1445 25.9C76.1897 25.9 69.7972 28.7119 66.4734 34.609L68.2157 35.591C71.0919 30.4881 76.6994 27.9 83.1445 27.9V25.9ZM67.6077 34.1352L66.5076 33.8352L65.9814 35.7648L67.0814 36.0648L67.6077 34.1352ZM67.1582 35.2064L82.0582 1.70639L80.2308 0.893604L65.3308 34.3936L67.1582 35.2064ZM81.1445 2.3H81.9445V0.299995H81.1445V2.3ZM81.105 1.84325C81.5177 2.48115 82.2656 3.03538 83.1338 3.50579C84.0317 3.99229 85.1747 4.45076 86.5106 4.84634C89.1848 5.63823 92.7061 6.2 96.7445 6.2V4.2C92.883 4.2 89.5542 3.66177 87.0785 2.92865C85.8394 2.56173 84.8324 2.15145 84.0865 1.74733C83.311 1.32712 82.9213 0.968838 82.7841 0.756744L81.105 1.84325ZM96.7445 6.2C103.664 6.2 111.292 4.47799 116.219 1.01841L115.07 -0.618416C110.597 2.522 103.425 4.2 96.7445 4.2V6.2ZM114.937 0.907104L115.437 1.4071L116.852 -0.00710869L116.352 -0.507109L114.937 0.907104ZM115.341 0.104599C111.286 5.57587 106.773 9.10696 101.701 11.2809C96.6161 13.4599 90.9123 14.3 84.4445 14.3V16.3C91.0768 16.3 97.073 15.4401 102.488 13.1191C107.916 10.793 112.703 7.02412 116.948 1.2954L115.341 0.104599ZM84.4445 14.3C83.1807 14.3 81.4107 14.2022 79.8329 14.102C78.3019 14.0048 76.8868 13.9 76.4445 13.9V15.9C76.8023 15.9 78.0872 15.9952 79.7062 16.098C81.2784 16.1978 83.1084 16.3 84.4445 16.3V14.3ZM75.5348 14.4848L68.7348 29.3848L70.5543 30.2152L77.3543 15.3152L75.5348 14.4848ZM70.204 30.6288C74.0186 28.054 78.9182 26.5 85.1445 26.5V24.5C78.5709 24.5 73.2704 26.146 69.0851 28.9711L70.204 30.6288ZM85.1445 26.5C91.2463 26.5 96.1567 27.9903 99.4804 30.5767C102.773 33.1389 104.586 36.8317 104.445 41.4697L106.444 41.5303C106.604 36.2683 104.516 31.9611 100.709 28.9983C96.9324 26.0597 91.5428 24.5 85.1445 24.5V26.5ZM104.445 41.4783C104.162 54.4772 91.401 63.4 74.5445 63.4V65.4C91.8881 65.4 106.127 56.1228 106.444 41.5217L104.445 41.4783Z" fill="url(#paint1_linear_0_49)"/>
<defs>
<linearGradient id="paint0_linear_0_49" x1="-26.6906" y1="60.8302" x2="251.521" y2="-105.821" gradientUnits="userSpaceOnUse">
<stop stop-color="#0A77CB"/>
<stop offset="0.57" stop-color="#49D5DF"/>
</linearGradient>
<linearGradient id="paint1_linear_0_49" x1="-26.6906" y1="60.8302" x2="251.521" y2="-105.821" gradientUnits="userSpaceOnUse">
<stop stop-color="#0A77CB"/>
<stop offset="0.57" stop-color="#49D5DF"/>
</linearGradient>
</defs>
</svg>
