<svg width="119" height="72" viewBox="0 0 119 72" fill="none" xmlns="http://www.w3.org/2000/svg">
<path d="M22.9 71.4C8.9 71.4 0.7 61.7 0.7 48.5C0.7 27.3 17.5 8 34.8 8C47.2 8 56.4 15.8 56.4 31C56.4 52.2 40.5 71.4 22.9 71.4ZM22.1 70.4C33.2 70.4 43.6 41.3 43.6 22.5C43.6 15.6 41.7 9 35.6 9C24.5 9 13.5 36.3 13.5 57.5C13.4 65.9 16.5 70.4 22.1 70.4ZM81.2445 71.4C69.3445 71.4 60.9445 63.8 61.2445 49.4C62.0445 24.8 84.4445 -4.76837e-06 104.645 -4.76837e-06C113.845 -4.76837e-06 118.045 5.2 118.045 10.3C118.045 14.6 116.145 18 111.845 18C107.745 18 106.045 14.6 106.045 9.4C105.945 4.19999 104.945 1.4 100.945 1.4C92.4445 1.4 81.8445 17.3 75.7445 36.2L76.2445 36.5C80.9445 31.2 85.6445 27.5 92.8445 27.5C103.245 27.5 109.545 34.5 109.245 44.9C108.945 57.3 98.1445 71.4 81.2445 71.4ZM80.3445 70.5C90.2445 70.5 96.2445 55 96.7445 43C97.1445 35 94.3445 30.2 88.4445 30.2C80.8445 30.2 72.3445 40.2 71.8445 54.9C71.3445 64.2 74.2445 70.5 80.3445 70.5Z" fill="url(#paint0_linear_0_50)"/>
<path d="M13.5 57.5L14.5 57.5119V57.5H13.5ZM22.9 70.4C16.1428 70.4 10.8699 68.0662 7.28135 64.218C3.68426 60.3606 1.7 54.895 1.7 48.5H-0.3C-0.3 55.305 1.81574 61.2894 5.81865 65.582C9.83015 69.8838 15.6572 72.4 22.9 72.4V70.4ZM1.7 48.5C1.7 38.1585 5.80127 28.2589 12.024 20.9482C18.2549 13.6278 26.5226 9 34.8 9V7C25.7774 7 16.9951 12.0222 10.501 19.6518C3.99873 27.291 -0.3 37.6415 -0.3 48.5H1.7ZM34.8 9C40.7903 9 45.9163 10.8805 49.5429 14.5071C53.1666 18.1308 55.4 23.6049 55.4 31H57.4C57.4 23.1951 55.0334 17.1692 50.9571 13.0929C46.8837 9.01946 41.2097 7 34.8 7V9ZM55.4 31C55.4 41.3562 51.5134 51.2328 45.4801 58.5118C39.4416 65.7971 31.3276 70.4 22.9 70.4V72.4C32.0724 72.4 40.7084 67.4029 47.0199 59.7881C53.3366 52.1672 57.4 41.8438 57.4 31H55.4ZM22.1 71.4C25.3211 71.4 28.3069 69.3019 30.9082 66.2022C33.5337 63.0736 35.921 58.7474 37.9364 53.8827C41.9665 44.1549 44.6 32.05 44.6 22.5H42.6C42.6 31.75 40.0335 43.5951 36.0886 53.1173C34.1165 57.8776 31.8226 62.0014 29.3762 64.9165C26.9056 67.8606 24.4289 69.4 22.1 69.4V71.4ZM44.6 22.5C44.6 18.9867 44.1207 15.4333 42.7846 12.7206C41.4187 9.94739 39.1135 8 35.6 8V10C38.1865 10 39.8813 11.3526 40.9904 13.6043C42.1293 15.9167 42.6 19.1133 42.6 22.5H44.6ZM35.6 8C32.4067 8 29.3882 9.95339 26.7196 12.9292C24.0318 15.9264 21.5649 20.1048 19.4711 24.8998C15.283 34.4905 12.5 46.7513 12.5 57.5H14.5C14.5 47.0487 17.217 35.0595 21.3039 25.7002C23.3476 21.0202 25.7119 17.0486 28.2086 14.2645C30.7243 11.4591 33.2433 10 35.6 10V8ZM12.5001 57.4881C12.4489 61.7878 13.2106 65.2457 14.8327 67.658C16.4932 70.1276 18.9897 71.4 22.1 71.4V69.4C19.6103 69.4 17.7568 68.4224 16.4923 66.542C15.1894 64.6043 14.4511 61.6122 14.4999 57.5119L12.5001 57.4881ZM61.2445 49.4L60.245 49.3675L60.2447 49.3792L61.2445 49.4ZM106.045 9.4H107.045V9.39038L107.044 9.38077L106.045 9.4ZM75.7445 36.2L74.7929 35.8928L74.5489 36.6488L75.23 37.0575L75.7445 36.2ZM76.2445 36.5L75.73 37.3575L76.4419 37.7846L76.9927 37.1635L76.2445 36.5ZM109.245 44.9L108.245 44.8712L108.245 44.8758L109.245 44.9ZM96.7445 43L95.7458 42.9501L95.7454 42.9584L96.7445 43ZM71.8445 54.9L72.8431 54.9537L72.8436 54.9438L72.844 54.934L71.8445 54.9ZM81.2445 70.4C75.5087 70.4 70.7157 68.5727 67.3911 65.1077C64.0664 61.6425 62.0984 56.4225 62.2443 49.4208L60.2447 49.3792C60.0906 56.7775 62.1726 62.5575 65.948 66.4923C69.7234 70.4273 75.0803 72.4 81.2445 72.4V70.4ZM62.244 49.4325C62.635 37.4104 68.315 25.2756 76.4177 16.1385C84.5349 6.98503 94.9345 0.999996 104.645 0.999996V-1C94.1546 -1 83.2541 5.41496 74.9213 14.8115C66.574 24.2244 60.6541 36.7896 60.2451 49.3675L62.244 49.4325ZM104.645 0.999996C109.056 0.999996 112.154 2.24422 114.134 3.98796C116.113 5.73108 117.045 8.03031 117.045 10.3H119.045C119.045 7.46969 117.876 4.61892 115.455 2.48704C113.035 0.355776 109.433 -1 104.645 -1V0.999996ZM117.045 10.3C117.045 12.3226 116.595 14.0142 115.749 15.173C114.936 16.288 113.694 17 111.845 17V19C114.296 19 116.153 18.012 117.365 16.352C118.544 14.7358 119.045 12.5774 119.045 10.3H117.045ZM111.845 17C110.127 17 109.003 16.317 108.255 15.12C107.462 13.8508 107.045 11.9208 107.045 9.4H105.045C105.045 12.0792 105.477 14.4492 106.559 16.18C107.686 17.983 109.462 19 111.845 19V17ZM107.044 9.38077C106.994 6.77364 106.725 4.54624 105.828 2.9582C105.363 2.13492 104.726 1.47559 103.878 1.03246C103.04 0.594713 102.058 0.399996 100.945 0.399996V2.4C101.831 2.4 102.474 2.55528 102.952 2.80503C103.419 3.0494 103.789 3.41507 104.086 3.94179C104.714 5.05375 104.995 6.82635 105.045 9.41923L107.044 9.38077ZM100.945 0.399996C98.5095 0.399996 96.0398 1.53365 93.663 3.39187C91.2768 5.25739 88.8998 7.91787 86.6277 11.1357C82.0816 17.5738 77.8663 26.3702 74.7929 35.8928L76.6962 36.5071C79.7227 27.1298 83.8574 18.5262 88.2614 12.2893C90.4643 9.16963 92.7122 6.67385 94.8948 4.96749C97.0867 3.25384 99.1295 2.4 100.945 2.4V0.399996ZM75.23 37.0575L75.73 37.3575L76.759 35.6425L76.259 35.3425L75.23 37.0575ZM76.9927 37.1635C81.6285 31.9359 86.0769 28.5 92.8445 28.5V26.5C85.2122 26.5 80.2606 30.4641 75.4963 35.8365L76.9927 37.1635ZM92.8445 28.5C97.8127 28.5 101.706 30.1658 104.325 32.9811C106.949 35.802 108.389 39.8789 108.245 44.8712L110.244 44.9288C110.4 39.5211 108.84 34.898 105.789 31.6189C102.733 28.3342 98.2764 26.5 92.8445 26.5V28.5ZM108.245 44.8758C107.956 56.799 97.5381 70.4 81.2445 70.4V72.4C98.751 72.4 109.933 57.801 110.244 44.9242L108.245 44.8758ZM80.3445 71.5C85.8727 71.5 90.1061 67.1836 92.9564 61.712C95.8335 56.189 97.4885 49.1667 97.7437 43.0416L95.7454 42.9584C95.5006 48.8333 93.9055 55.561 91.1827 60.788C88.433 66.0664 84.7164 69.5 80.3445 69.5V71.5ZM97.7433 43.0499C97.9482 38.9513 97.346 35.5134 95.8029 33.0665C94.2185 30.5545 91.7114 29.2 88.4445 29.2V31.2C91.0776 31.2 92.9205 32.2455 94.1112 34.1334C95.343 36.0866 95.9408 39.0487 95.7458 42.9501L97.7433 43.0499ZM88.4445 29.2C84.2073 29.2 79.9167 31.9654 76.6718 36.4514C73.4073 40.9645 71.1012 47.3358 70.8451 54.866L72.844 54.934C73.0878 47.7642 75.2818 41.7855 78.2923 37.6236C81.3223 33.4346 85.0818 31.2 88.4445 31.2V29.2ZM70.846 54.8463C70.5911 59.5865 71.1918 63.6895 72.7325 66.6492C74.3037 69.6675 76.8684 71.5 80.3445 71.5V69.5C77.7207 69.5 75.7854 68.1825 74.5066 65.7258C73.1973 63.2105 72.5979 59.5135 72.8431 54.9537L70.846 54.8463Z" fill="url(#paint1_linear_0_50)"/>
<defs>
<linearGradient id="paint0_linear_0_50" x1="-27.314" y1="67.8302" x2="254.255" y2="-105.27" gradientUnits="userSpaceOnUse">
<stop stop-color="#0A77CB"/>
<stop offset="0.57" stop-color="#49D5DF"/>
</linearGradient>
<linearGradient id="paint1_linear_0_50" x1="-27.314" y1="67.8302" x2="254.255" y2="-105.27" gradientUnits="userSpaceOnUse">
<stop stop-color="#0A77CB"/>
<stop offset="0.57" stop-color="#49D5DF"/>
</linearGradient>
</defs>
</svg>
