<svg xmlns="http://www.w3.org/2000/svg" xmlns:xlink="http://www.w3.org/1999/xlink" width="3456" zoomAndPan="magnify" viewBox="0 0 2592 3455.999975" height="4608" preserveAspectRatio="xMidYMid meet" version="1.0"><defs><g/></defs><g fill="#000000" fill-opacity="1"><g transform="translate(1157.878081, 1711.424896)"><g><path d="M 16.734375 5.703125 C 15.097656 5.703125 13.0625 4.722656 10.625 2.765625 C 8.90625 2.484375 7.429688 2.109375 6.203125 1.640625 C 4.984375 1.179688 3.976562 0.632812 3.1875 0 C 2.0625 -0.957031 1.078125 -2.234375 0.234375 -3.828125 C -0.597656 -5.429688 -1.015625 -6.972656 -1.015625 -8.453125 C -1.015625 -9.578125 -0.753906 -10.578125 -0.234375 -11.453125 C 0.960938 -13.578125 2.476562 -14.640625 4.3125 -14.640625 C 5.71875 -14.640625 6.539062 -13.457031 6.78125 -11.09375 C 7.0625 -8.894531 7.289062 -7.144531 7.46875 -5.84375 C 7.644531 -4.550781 7.796875 -3.703125 7.921875 -3.296875 C 8.515625 -1.335938 9.535156 0.320312 10.984375 1.6875 C 12.660156 2.039062 14.476562 2.21875 16.4375 2.21875 C 20.757812 2.21875 24.898438 1.398438 28.859375 -0.234375 C 30.535156 -0.953125 32.175781 -1.890625 33.78125 -3.046875 C 35.382812 -4.210938 36.703125 -5.492188 37.734375 -6.890625 C 38.773438 -8.296875 39.296875 -9.660156 39.296875 -10.984375 C 39.296875 -12.859375 37.632812 -14.316406 34.3125 -15.359375 L 23.765625 -17.765625 C 21.597656 -18.242188 19.863281 -19.09375 18.5625 -20.3125 C 17.269531 -21.53125 16.625 -22.921875 16.625 -24.484375 C 16.625 -26.878906 18.125 -29.28125 21.125 -31.6875 C 22.644531 -32.925781 24.421875 -33.972656 26.453125 -34.828125 C 28.492188 -35.691406 30.644531 -36.351562 32.90625 -36.8125 C 35.164062 -37.269531 37.335938 -37.5 39.421875 -37.5 C 42.378906 -37.5 44.90625 -37.035156 47 -36.109375 C 49.101562 -35.191406 50.414062 -33.851562 50.9375 -32.09375 C 51.0625 -31.695312 51.125 -31.257812 51.125 -30.78125 C 51.125 -28.34375 49.898438 -26.644531 47.453125 -25.6875 C 45.972656 -25.082031 44.71875 -24.78125 43.6875 -24.78125 C 43.039062 -24.78125 42.539062 -24.898438 42.1875 -25.140625 C 42.101562 -25.222656 42.0625 -25.320312 42.0625 -25.4375 C 42.0625 -25.71875 42.617188 -25.878906 43.734375 -25.921875 C 44.421875 -25.960938 44.984375 -26.019531 45.421875 -26.09375 C 45.859375 -26.175781 46.175781 -26.257812 46.375 -26.34375 C 47.894531 -27.144531 48.65625 -28.320312 48.65625 -29.875 C 48.65625 -30.675781 48.4375 -31.519531 48 -32.40625 C 46.757812 -34.675781 43.660156 -35.8125 38.703125 -35.8125 C 36.898438 -35.8125 35.035156 -35.625 33.109375 -35.25 C 31.191406 -34.875 29.375 -34.3125 27.65625 -33.5625 C 25.9375 -32.820312 24.476562 -31.894531 23.28125 -30.78125 C 21.195312 -28.863281 20.15625 -27.144531 20.15625 -25.625 C 20.15625 -24.457031 20.722656 -23.425781 21.859375 -22.53125 C 23.003906 -21.632812 24.738281 -20.960938 27.0625 -20.515625 L 34.140625 -19.203125 C 36.859375 -18.679688 39.054688 -17.910156 40.734375 -16.890625 C 42.421875 -15.867188 43.265625 -14.316406 43.265625 -12.234375 C 43.265625 -10.398438 42.800781 -8.679688 41.875 -7.078125 C 40.957031 -5.484375 39.726562 -4.054688 38.1875 -2.796875 C 36.644531 -1.535156 34.894531 -0.484375 32.9375 0.359375 C 28.5 2.316406 23.257812 3.296875 17.21875 3.296875 C 16.457031 3.296875 15.695312 3.273438 14.9375 3.234375 C 14.175781 3.203125 13.4375 3.144531 12.71875 3.0625 C 13.28125 3.382812 13.988281 3.703125 14.84375 4.015625 C 15.707031 4.335938 16.695312 4.640625 17.8125 4.921875 C 17.9375 4.960938 18 5.039062 18 5.15625 C 18 5.519531 17.578125 5.703125 16.734375 5.703125 Z M 8.8125 1.078125 C 7.738281 -0.117188 6.898438 -1.359375 6.296875 -2.640625 C 5.421875 -4.640625 4.757812 -7.097656 4.3125 -10.015625 C 4 -12.140625 3.660156 -13.203125 3.296875 -13.203125 C 2.972656 -13.203125 2.539062 -12.960938 2 -12.484375 C 1.46875 -12.003906 1.203125 -10.984375 1.203125 -9.421875 C 1.203125 -6.378906 2.28125 -3.738281 4.4375 -1.5 C 5.519531 -0.375 6.976562 0.484375 8.8125 1.078125 Z M 8.8125 1.078125 "/></g></g></g><g fill="#000000" fill-opacity="1"><g transform="translate(1202.758042, 1711.424896)"><g><path d="M 2.578125 0.125 C 1.578125 0.125 0.796875 -0.34375 0.234375 -1.28125 C -0.316406 -2.226562 -0.59375 -3.140625 -0.59375 -4.015625 C -0.59375 -6.421875 1.144531 -9.78125 4.625 -14.09375 C 8.144531 -18.457031 10.984375 -20.640625 13.140625 -20.640625 C 15.179688 -20.640625 16.203125 -19.5625 16.203125 -17.40625 C 16.203125 -17.082031 16.171875 -16.738281 16.109375 -16.375 C 16.046875 -16.019531 15.976562 -15.640625 15.90625 -15.234375 C 15.976562 -15.117188 16.175781 -15.0625 16.5 -15.0625 C 17.582031 -15.0625 18.863281 -15.441406 20.34375 -16.203125 C 20.300781 -15.523438 18.71875 -14.546875 15.59375 -13.265625 C 16.039062 -11.941406 14.722656 -9.421875 11.640625 -5.703125 C 8.484375 -1.816406 5.785156 0.125 3.546875 0.125 Z M 3.65625 -1.6875 C 5.375 -1.6875 7.578125 -3.265625 10.265625 -6.421875 C 12.859375 -9.503906 14.15625 -11.722656 14.15625 -13.078125 C 13.519531 -13.441406 12.722656 -14.363281 11.765625 -15.84375 C 10.398438 -15.84375 8.4375 -14.203125 5.875 -10.921875 C 3.351562 -7.722656 2.132812 -5.265625 2.21875 -3.546875 C 2.257812 -2.304688 2.738281 -1.6875 3.65625 -1.6875 Z M 14.703125 -18.0625 L 14.765625 -19.203125 C 15.035156 -19.242188 15.390625 -19.269531 15.828125 -19.28125 C 16.273438 -19.300781 16.664062 -19.410156 17 -19.609375 C 17.34375 -19.816406 17.515625 -20.160156 17.515625 -20.640625 C 17.515625 -21.078125 17.394531 -21.363281 17.15625 -21.5 C 16.914062 -21.644531 16.554688 -21.71875 16.078125 -21.71875 C 15.835938 -21.71875 15.71875 -21.859375 15.71875 -22.140625 C 15.71875 -22.578125 15.988281 -22.851562 16.53125 -22.96875 C 17.070312 -23.09375 17.484375 -23.15625 17.765625 -23.15625 C 18.242188 -23.15625 18.660156 -22.972656 19.015625 -22.609375 C 19.378906 -22.253906 19.5625 -21.675781 19.5625 -20.875 C 19.5625 -20 19.25 -19.347656 18.625 -18.921875 C 18.007812 -18.503906 17.3125 -18.242188 16.53125 -18.140625 C 15.75 -18.046875 15.140625 -18.019531 14.703125 -18.0625 Z M 13.078125 -22.5625 C 12.835938 -22.5625 12.6875 -22.648438 12.625 -22.828125 C 12.570312 -23.015625 12.582031 -23.128906 12.65625 -23.171875 C 13.695312 -23.847656 14.617188 -24.460938 15.421875 -25.015625 C 16.222656 -25.578125 16.625 -26.300781 16.625 -27.1875 C 16.625 -27.507812 16.53125 -27.769531 16.34375 -27.96875 C 16.164062 -28.164062 15.835938 -28.265625 15.359375 -28.265625 C 14.835938 -28.265625 14.21875 -28.125 13.5 -27.84375 C 12.78125 -27.5625 12.140625 -27.144531 11.578125 -26.59375 L 11.453125 -26.46875 C 11.140625 -26.46875 11.0625 -26.628906 11.21875 -26.953125 C 11.65625 -28.066406 12.382812 -28.929688 13.40625 -29.546875 C 14.425781 -30.171875 15.617188 -30.425781 16.984375 -30.3125 C 17.617188 -30.269531 18.101562 -30.007812 18.4375 -29.53125 C 18.78125 -29.050781 18.953125 -28.53125 18.953125 -27.96875 C 18.953125 -26.53125 18.253906 -25.390625 16.859375 -24.546875 C 15.941406 -23.941406 15.179688 -23.457031 14.578125 -23.09375 C 13.984375 -22.738281 13.523438 -22.5625 13.203125 -22.5625 Z M 13.078125 -22.5625 "/></g></g></g><g fill="#000000" fill-opacity="1"><g transform="translate(1219.618026, 1711.424896)"><g/></g></g><g fill="#000000" fill-opacity="1"><g transform="translate(1231.498011, 1711.424896)"><g><path d="M -1.625 0.296875 C -2.78125 0.296875 -3.359375 -0.0390625 -3.359375 -0.71875 C -3.359375 -1.113281 -3.117188 -1.753906 -2.640625 -2.640625 C -0.796875 -5.921875 0.851562 -8.832031 2.3125 -11.375 C 3.769531 -13.914062 5.0625 -16.0625 6.1875 -17.8125 C 10.9375 -25.457031 14.296875 -29.597656 16.265625 -30.234375 C 16.335938 -30.234375 16.394531 -30.242188 16.4375 -30.265625 C 16.476562 -30.285156 16.519531 -30.296875 16.5625 -30.296875 C 17.082031 -30.296875 17.421875 -29.878906 17.578125 -29.046875 C 17.460938 -28.203125 15.382812 -25.160156 11.34375 -19.921875 C 9.21875 -17.242188 7.566406 -15.035156 6.390625 -13.296875 C 5.210938 -11.554688 4.484375 -10.285156 4.203125 -9.484375 C 5.523438 -10.441406 6.941406 -11.457031 8.453125 -12.53125 C 9.972656 -13.613281 11.453125 -14.644531 12.890625 -15.625 C 14.335938 -16.601562 15.640625 -17.398438 16.796875 -18.015625 C 17.960938 -18.640625 18.863281 -18.992188 19.5 -19.078125 C 19.582031 -19.078125 19.679688 -19.085938 19.796875 -19.109375 C 19.921875 -19.128906 20.003906 -19.140625 20.046875 -19.140625 C 21.160156 -19.140625 21.71875 -18.617188 21.71875 -17.578125 C 21.71875 -17.296875 21.359375 -16.675781 20.640625 -15.71875 C 19.921875 -14.757812 18.820312 -13.28125 17.34375 -11.28125 C 14.695312 -7.757812 13.375 -5.117188 13.375 -3.359375 C 13.375 -2.441406 13.71875 -1.984375 14.40625 -1.984375 C 15.125 -2.023438 15.953125 -2.34375 16.890625 -2.9375 C 17.828125 -3.539062 18.773438 -4.28125 19.734375 -5.15625 C 20.703125 -6.039062 21.570312 -6.910156 22.34375 -7.765625 C 23.125 -8.628906 23.71875 -9.300781 24.125 -9.78125 C 24.476562 -10.132812 24.753906 -10.3125 24.953125 -10.3125 C 25.117188 -10.3125 25.203125 -10.234375 25.203125 -10.078125 C 25.203125 -9.753906 25.039062 -9.375 24.71875 -8.9375 C 24.238281 -8.34375 23.53125 -7.5625 22.59375 -6.59375 C 21.65625 -5.632812 20.632812 -4.664062 19.53125 -3.6875 C 18.425781 -2.707031 17.382812 -1.882812 16.40625 -1.21875 C 15.425781 -0.5625 14.695312 -0.234375 14.21875 -0.234375 C 11.863281 -0.234375 10.6875 -1.613281 10.6875 -4.375 C 10.6875 -5.9375 11.40625 -7.976562 12.84375 -10.5 C 13.40625 -11.457031 13.984375 -12.414062 14.578125 -13.375 C 15.179688 -14.332031 15.78125 -15.296875 16.375 -16.265625 C 11.257812 -13.703125 6.617188 -9.921875 2.453125 -4.921875 C 1.941406 -4.203125 1.40625 -3.429688 0.84375 -2.609375 C 0.28125 -1.785156 -0.21875 -1.09375 -0.65625 -0.53125 C -1.09375 0.0195312 -1.414062 0.296875 -1.625 0.296875 Z M -1.625 0.296875 "/></g></g></g><g fill="#000000" fill-opacity="1"><g transform="translate(1254.057988, 1711.424896)"><g><path d="M 2.8125 0.65625 C 1.019531 0.65625 0.125 -0.484375 0.125 -2.765625 C 0.125 -3.640625 0.390625 -4.6875 0.921875 -5.90625 C 1.460938 -7.125 2.234375 -8.414062 3.234375 -9.78125 C 3.234375 -9.78125 2.875 -9.4375 2.15625 -8.75 C 1.4375 -8.070312 0.617188 -7.21875 -0.296875 -6.1875 C -0.460938 -6.019531 -0.664062 -5.9375 -0.90625 -5.9375 C -1.0625 -5.9375 -1.140625 -6.035156 -1.140625 -6.234375 C -1.140625 -6.441406 -0.957031 -6.785156 -0.59375 -7.265625 L 7.6875 -16.984375 C 8.71875 -18.179688 9.851562 -18.78125 11.09375 -18.78125 C 12.019531 -18.78125 12.484375 -18.421875 12.484375 -17.703125 C 12.484375 -17.421875 12.363281 -17.160156 12.125 -16.921875 C 11.363281 -16.203125 10.429688 -15.179688 9.328125 -13.859375 C 8.234375 -12.535156 7.164062 -11.113281 6.125 -9.59375 C 5.082031 -8.070312 4.207031 -6.625 3.5 -5.25 C 2.800781 -3.875 2.453125 -2.765625 2.453125 -1.921875 C 2.453125 -1.203125 2.695312 -0.84375 3.1875 -0.84375 C 3.457031 -0.84375 3.894531 -0.953125 4.5 -1.171875 C 5.101562 -1.390625 5.90625 -1.847656 6.90625 -2.546875 C 7.90625 -3.242188 9.101562 -4.332031 10.5 -5.8125 C 10.738281 -6.0625 11.378906 -6.785156 12.421875 -7.984375 C 13.460938 -9.179688 14.863281 -10.898438 16.625 -13.140625 C 19.738281 -17.015625 21.773438 -18.953125 22.734375 -18.953125 C 24.054688 -18.953125 24.78125 -18.414062 24.90625 -17.34375 C 24.976562 -16.976562 24.132812 -15.796875 22.375 -13.796875 C 20.09375 -11.035156 18.535156 -9.054688 17.703125 -7.859375 C 16.140625 -5.578125 15.359375 -3.796875 15.359375 -2.515625 C 15.359375 -1.640625 15.660156 -1.203125 16.265625 -1.203125 C 16.859375 -1.203125 17.625 -1.488281 18.5625 -2.0625 C 19.507812 -2.644531 20.5 -3.382812 21.53125 -4.28125 C 22.570312 -5.1875 23.582031 -6.128906 24.5625 -7.109375 C 25.550781 -8.085938 26.40625 -9 27.125 -9.84375 C 27.363281 -10.125 27.601562 -10.265625 27.84375 -10.265625 C 28.082031 -10.265625 28.203125 -10.144531 28.203125 -9.90625 C 28.203125 -9.820312 28.179688 -9.695312 28.140625 -9.53125 C 28.097656 -9.375 27.976562 -9.195312 27.78125 -9 C 27.132812 -8.28125 26.3125 -7.390625 25.3125 -6.328125 C 24.3125 -5.265625 23.234375 -4.210938 22.078125 -3.171875 C 20.921875 -2.140625 19.800781 -1.28125 18.71875 -0.59375 C 17.632812 0.0820312 16.710938 0.421875 15.953125 0.421875 C 15.035156 0.421875 14.238281 0.171875 13.5625 -0.328125 C 12.882812 -0.828125 12.546875 -1.519531 12.546875 -2.40625 C 12.546875 -3.28125 12.679688 -4.164062 12.953125 -5.0625 C 13.234375 -5.96875 13.457031 -6.738281 13.625 -7.375 C 11.738281 -5.175781 10.085938 -3.492188 8.671875 -2.328125 C 7.253906 -1.171875 6.0625 -0.382812 5.09375 0.03125 C 4.132812 0.445312 3.375 0.65625 2.8125 0.65625 Z M 23.765625 -17.28125 L 23.828125 -18.421875 C 24.097656 -18.460938 24.453125 -18.488281 24.890625 -18.5 C 25.335938 -18.519531 25.726562 -18.628906 26.0625 -18.828125 C 26.40625 -19.035156 26.578125 -19.378906 26.578125 -19.859375 C 26.578125 -20.296875 26.457031 -20.582031 26.21875 -20.71875 C 25.976562 -20.863281 25.617188 -20.9375 25.140625 -20.9375 C 24.898438 -20.9375 24.78125 -21.078125 24.78125 -21.359375 C 24.78125 -21.796875 25.050781 -22.070312 25.59375 -22.1875 C 26.132812 -22.3125 26.546875 -22.375 26.828125 -22.375 C 27.304688 -22.375 27.722656 -22.191406 28.078125 -21.828125 C 28.441406 -21.472656 28.625 -20.894531 28.625 -20.09375 C 28.625 -19.21875 28.3125 -18.566406 27.6875 -18.140625 C 27.070312 -17.722656 26.375 -17.460938 25.59375 -17.359375 C 24.8125 -17.265625 24.203125 -17.238281 23.765625 -17.28125 Z M 21.5 -22 C 20.78125 -22 19.816406 -22.285156 18.609375 -22.859375 C 17.367188 -23.472656 16.460938 -23.78125 15.890625 -23.78125 C 15.210938 -23.78125 14.578125 -23.492188 13.984375 -22.921875 C 13.367188 -22.347656 12.96875 -22.0625 12.78125 -22.0625 C 12.75 -22.113281 12.734375 -22.160156 12.734375 -22.203125 C 12.734375 -22.898438 13.539062 -23.800781 15.15625 -24.90625 C 15.757812 -25.332031 16.441406 -25.546875 17.203125 -25.546875 C 17.753906 -25.546875 18.65625 -25.304688 19.90625 -24.828125 C 21.03125 -24.390625 21.914062 -24.171875 22.5625 -24.171875 C 23.46875 -24.171875 24.257812 -24.628906 24.9375 -25.546875 C 25.164062 -25.546875 25.28125 -25.460938 25.28125 -25.296875 C 25.28125 -24.628906 24.523438 -23.707031 23.015625 -22.53125 C 22.523438 -22.175781 22.019531 -22 21.5 -22 Z M 21.5 -22 "/></g></g></g><g fill="#000000" fill-opacity="1"><g transform="translate(1279.557964, 1711.424896)"><g><path d="M 2.8125 0.65625 C 1.019531 0.65625 0.125 -0.484375 0.125 -2.765625 C 0.125 -3.640625 0.390625 -4.6875 0.921875 -5.90625 C 1.460938 -7.125 2.234375 -8.414062 3.234375 -9.78125 C 3.234375 -9.78125 2.875 -9.4375 2.15625 -8.75 C 1.4375 -8.070312 0.617188 -7.21875 -0.296875 -6.1875 C -0.460938 -6.019531 -0.664062 -5.9375 -0.90625 -5.9375 C -1.0625 -5.9375 -1.140625 -6.035156 -1.140625 -6.234375 C -1.140625 -6.441406 -0.957031 -6.785156 -0.59375 -7.265625 L 7.6875 -16.984375 C 8.71875 -18.179688 9.851562 -18.78125 11.09375 -18.78125 C 12.019531 -18.78125 12.484375 -18.421875 12.484375 -17.703125 C 12.484375 -17.421875 12.363281 -17.160156 12.125 -16.921875 C 11.363281 -16.203125 10.429688 -15.179688 9.328125 -13.859375 C 8.234375 -12.535156 7.164062 -11.113281 6.125 -9.59375 C 5.082031 -8.070312 4.207031 -6.625 3.5 -5.25 C 2.800781 -3.875 2.453125 -2.765625 2.453125 -1.921875 C 2.453125 -1.203125 2.695312 -0.84375 3.1875 -0.84375 C 3.457031 -0.84375 3.894531 -0.953125 4.5 -1.171875 C 5.101562 -1.390625 5.90625 -1.847656 6.90625 -2.546875 C 7.90625 -3.242188 9.101562 -4.332031 10.5 -5.8125 C 10.738281 -6.0625 11.378906 -6.785156 12.421875 -7.984375 C 13.460938 -9.179688 14.863281 -10.898438 16.625 -13.140625 C 19.738281 -17.015625 21.773438 -18.953125 22.734375 -18.953125 C 24.054688 -18.953125 24.78125 -18.414062 24.90625 -17.34375 C 24.976562 -16.976562 24.132812 -15.796875 22.375 -13.796875 C 20.09375 -11.035156 18.535156 -9.054688 17.703125 -7.859375 C 16.140625 -5.578125 15.359375 -3.796875 15.359375 -2.515625 C 15.359375 -1.640625 15.660156 -1.203125 16.265625 -1.203125 C 16.859375 -1.203125 17.625 -1.488281 18.5625 -2.0625 C 19.507812 -2.644531 20.5 -3.382812 21.53125 -4.28125 C 22.570312 -5.1875 23.582031 -6.128906 24.5625 -7.109375 C 25.550781 -8.085938 26.40625 -9 27.125 -9.84375 C 27.363281 -10.125 27.601562 -10.265625 27.84375 -10.265625 C 28.082031 -10.265625 28.203125 -10.144531 28.203125 -9.90625 C 28.203125 -9.820312 28.179688 -9.695312 28.140625 -9.53125 C 28.097656 -9.375 27.976562 -9.195312 27.78125 -9 C 27.132812 -8.28125 26.3125 -7.390625 25.3125 -6.328125 C 24.3125 -5.265625 23.234375 -4.210938 22.078125 -3.171875 C 20.921875 -2.140625 19.800781 -1.28125 18.71875 -0.59375 C 17.632812 0.0820312 16.710938 0.421875 15.953125 0.421875 C 15.035156 0.421875 14.238281 0.171875 13.5625 -0.328125 C 12.882812 -0.828125 12.546875 -1.519531 12.546875 -2.40625 C 12.546875 -3.28125 12.679688 -4.164062 12.953125 -5.0625 C 13.234375 -5.96875 13.457031 -6.738281 13.625 -7.375 C 11.738281 -5.175781 10.085938 -3.492188 8.671875 -2.328125 C 7.253906 -1.171875 6.0625 -0.382812 5.09375 0.03125 C 4.132812 0.445312 3.375 0.65625 2.8125 0.65625 Z M 2.8125 0.65625 "/></g></g></g><g fill="#000000" fill-opacity="1"><g transform="translate(1305.057939, 1711.424896)"><g/></g></g><g fill="#000000" fill-opacity="1"><g transform="translate(1316.937925, 1711.424896)"><g><path d="M 4.5625 0.78125 C 3.28125 0.78125 2.117188 0.367188 1.078125 -0.453125 C 0.0351562 -1.273438 -0.484375 -2.363281 -0.484375 -3.71875 C -0.484375 -6.5625 1.253906 -9.800781 4.734375 -13.4375 C 8.296875 -17.113281 11.476562 -18.953125 14.28125 -18.953125 C 15.238281 -18.953125 16 -18.703125 16.5625 -18.203125 C 17.125 -17.703125 17.40625 -17.09375 17.40625 -16.375 C 17.40625 -15.375 17.164062 -14.457031 16.6875 -13.625 C 16.125 -12.582031 15.320312 -12.0625 14.28125 -12.0625 C 13.238281 -12.0625 12.71875 -12.378906 12.71875 -13.015625 C 12.71875 -13.460938 12.976562 -14.125 13.5 -15 C 14.0625 -15.914062 14.34375 -16.394531 14.34375 -16.4375 C 14.34375 -16.519531 14.28125 -16.5625 14.15625 -16.5625 C 13.039062 -16.4375 11.484375 -15.613281 9.484375 -14.09375 C 8.597656 -13.414062 7.828125 -12.773438 7.171875 -12.171875 C 6.515625 -11.578125 5.984375 -11 5.578125 -10.4375 L 3.234375 -7.015625 C 2.992188 -6.660156 2.742188 -6.039062 2.484375 -5.15625 C 2.222656 -4.28125 2.09375 -3.625 2.09375 -3.1875 C 2.09375 -2.382812 2.363281 -1.722656 2.90625 -1.203125 C 3.445312 -0.679688 4.140625 -0.421875 4.984375 -0.421875 C 6.984375 -0.421875 9.625 -1.71875 12.90625 -4.3125 C 15.539062 -6.394531 17.660156 -8.5 19.265625 -10.625 C 19.460938 -10.863281 19.703125 -10.984375 19.984375 -10.984375 C 20.265625 -10.984375 20.40625 -10.898438 20.40625 -10.734375 C 20.40625 -10.617188 20.300781 -10.421875 20.09375 -10.140625 C 17.894531 -7.222656 15.316406 -4.703125 12.359375 -2.578125 C 9.203125 -0.335938 6.601562 0.78125 4.5625 0.78125 Z M 4.5625 0.78125 "/></g></g></g><g fill="#000000" fill-opacity="1"><g transform="translate(1333.917912, 1711.424896)"><g><path d="M 4.015625 0.296875 C 3.054688 0.296875 2.097656 -0.0390625 1.140625 -0.71875 C 0.179688 -1.394531 -0.359375 -2.195312 -0.484375 -3.125 C -0.878906 -6.195312 1.0625 -9.851562 5.34375 -14.09375 C 9.582031 -18.332031 13.398438 -20.453125 16.796875 -20.453125 C 17.722656 -20.453125 18.441406 -20.234375 18.953125 -19.796875 C 19.234375 -19.515625 19.441406 -19.132812 19.578125 -18.65625 C 19.722656 -18.175781 19.835938 -17.9375 19.921875 -17.9375 C 20.078125 -17.9375 20.210938 -17.96875 20.328125 -18.03125 C 20.453125 -18.09375 20.597656 -18.125 20.765625 -18.125 C 21.242188 -18.125 21.660156 -17.941406 22.015625 -17.578125 C 22.378906 -17.222656 22.582031 -16.90625 22.625 -16.625 C 22.664062 -16.539062 21.382812 -14.5625 18.78125 -10.6875 C 16.175781 -6.882812 14.992188 -4.300781 15.234375 -2.9375 C 15.441406 -2.019531 15.882812 -1.5625 16.5625 -1.5625 C 18.644531 -1.5625 22.441406 -5 27.953125 -11.875 C 28.078125 -12.039062 28.195312 -12.125 28.3125 -12.125 C 28.519531 -12.125 28.625 -11.984375 28.625 -11.703125 C 28.625 -11.378906 28.441406 -10.976562 28.078125 -10.5 C 22.992188 -3.65625 19.09375 -0.234375 16.375 -0.234375 C 16.019531 -0.234375 15.679688 -0.296875 15.359375 -0.421875 C 13.597656 -1.097656 12.71875 -2.414062 12.71875 -4.375 C 12.71875 -5.0625 12.796875 -5.742188 12.953125 -6.421875 L 9.234375 -2.8125 C 8.117188 -1.695312 7.109375 -0.898438 6.203125 -0.421875 C 5.304688 0.0546875 4.578125 0.296875 4.015625 0.296875 Z M 3.484375 -1.015625 C 5.796875 -1.015625 8.953125 -3.554688 12.953125 -8.640625 L 19.3125 -17.40625 C 19 -17.957031 18.484375 -18.234375 17.765625 -18.234375 C 15.316406 -18.234375 12.015625 -16.273438 7.859375 -12.359375 C 3.535156 -8.359375 1.597656 -5.054688 2.046875 -2.453125 C 2.242188 -1.492188 2.722656 -1.015625 3.484375 -1.015625 Z M 19.8125 -23.046875 C 18.6875 -23.046875 17.820312 -23.363281 17.21875 -24 C 16.625 -24.644531 16.328125 -25.503906 16.328125 -26.578125 C 16.328125 -27.054688 16.394531 -27.546875 16.53125 -28.046875 C 16.675781 -28.546875 16.945312 -28.796875 17.34375 -28.796875 C 17.664062 -28.796875 17.851562 -28.664062 17.90625 -28.40625 C 17.96875 -28.144531 18.019531 -27.894531 18.0625 -27.65625 C 18.300781 -26.132812 19.203125 -25.375 20.765625 -25.375 C 21.679688 -25.375 22.679688 -25.625 23.765625 -26.125 C 24.847656 -26.625 26.007812 -27.515625 27.25 -28.796875 C 27.5625 -29.117188 27.914062 -29.390625 28.3125 -29.609375 C 28.71875 -29.828125 28.921875 -29.816406 28.921875 -29.578125 C 28.921875 -29.421875 28.765625 -29.125 28.453125 -28.6875 C 27.046875 -26.84375 25.59375 -25.441406 24.09375 -24.484375 C 22.59375 -23.523438 21.164062 -23.046875 19.8125 -23.046875 Z M 19.8125 -23.046875 "/></g></g></g><g fill="#000000" fill-opacity="1"><g transform="translate(1358.637881, 1711.424896)"><g><path d="M 15.296875 0.125 C 14.222656 0.125 13.460938 -0.179688 13.015625 -0.796875 C 12.578125 -1.421875 12.359375 -2.195312 12.359375 -3.125 C 12.359375 -5.4375 13.160156 -7.914062 14.765625 -10.5625 L 18.59375 -16.796875 C 15.875 -14.796875 13.175781 -12.296875 10.5 -9.296875 C 9.78125 -8.492188 8.96875 -7.550781 8.0625 -6.46875 C 7.164062 -5.394531 6.175781 -4.160156 5.09375 -2.765625 C 3.65625 -0.878906 2.796875 0.0625 2.515625 0.0625 C 1.960938 0.0625 1.503906 -0.1875 1.140625 -0.6875 C 0.773438 -1.1875 0.59375 -1.640625 0.59375 -2.046875 C 0.59375 -2.359375 0.691406 -2.941406 0.890625 -3.796875 C 1.097656 -4.660156 1.34375 -5.414062 1.625 -6.0625 C 1.90625 -6.738281 2.191406 -7.40625 2.484375 -8.0625 C 2.785156 -8.726562 3.078125 -9.378906 3.359375 -10.015625 L -0.234375 -6.234375 C -0.316406 -6.160156 -0.554688 -5.921875 -0.953125 -5.515625 C -1.359375 -5.117188 -1.679688 -4.921875 -1.921875 -4.921875 C -2.117188 -4.921875 -2.21875 -5.0625 -2.21875 -5.34375 C -2.21875 -5.414062 -2.1875 -5.519531 -2.125 -5.65625 C -2.070312 -5.800781 -1.941406 -5.976562 -1.734375 -6.1875 C -1.140625 -6.78125 -0.523438 -7.414062 0.109375 -8.09375 C 0.753906 -8.78125 1.414062 -9.5625 2.09375 -10.4375 C 2.457031 -10.875 3 -11.539062 3.71875 -12.4375 C 4.4375 -13.34375 5.222656 -14.316406 6.078125 -15.359375 C 6.941406 -16.398438 7.753906 -17.359375 8.515625 -18.234375 C 8.710938 -18.515625 8.929688 -18.703125 9.171875 -18.796875 C 9.421875 -18.898438 9.582031 -18.953125 9.65625 -18.953125 C 10.738281 -18.953125 11.28125 -18.535156 11.28125 -17.703125 C 11.28125 -17.460938 11.21875 -17.222656 11.09375 -16.984375 C 7.5 -12.023438 5.34375 -8.242188 4.625 -5.640625 C 9.257812 -10.273438 12.988281 -13.765625 15.8125 -16.109375 C 18.632812 -18.453125 20.644531 -19.625 21.84375 -19.625 C 22.476562 -19.625 22.960938 -19.519531 23.296875 -19.3125 C 23.640625 -19.113281 23.8125 -18.738281 23.8125 -18.1875 C 23.8125 -17.976562 23.796875 -17.816406 23.765625 -17.703125 C 23.640625 -17.421875 22.816406 -16.300781 21.296875 -14.34375 C 20.378906 -13.21875 19.566406 -12.195312 18.859375 -11.28125 C 18.160156 -10.363281 17.59375 -9.5625 17.15625 -8.875 C 16.4375 -7.757812 15.894531 -6.710938 15.53125 -5.734375 C 15.175781 -4.753906 15 -3.921875 15 -3.234375 C 15 -2.953125 15.035156 -2.613281 15.109375 -2.21875 C 15.191406 -1.820312 15.4375 -1.625 15.84375 -1.625 C 16.757812 -1.625 18.195312 -2.421875 20.15625 -4.015625 C 21.082031 -4.816406 21.941406 -5.628906 22.734375 -6.453125 C 23.535156 -7.273438 24.296875 -8.082031 25.015625 -8.875 C 25.179688 -9.039062 25.441406 -9.351562 25.796875 -9.8125 C 26.160156 -10.269531 26.378906 -10.5 26.453125 -10.5 C 26.617188 -10.5 26.703125 -10.335938 26.703125 -10.015625 C 26.703125 -9.859375 26.609375 -9.585938 26.421875 -9.203125 C 26.242188 -8.828125 26.054688 -8.539062 25.859375 -8.34375 C 25.421875 -7.820312 24.769531 -7.097656 23.90625 -6.171875 C 23.050781 -5.253906 22.09375 -4.316406 21.03125 -3.359375 C 19.96875 -2.398438 18.9375 -1.578125 17.9375 -0.890625 C 16.9375 -0.210938 16.054688 0.125 15.296875 0.125 Z M 15.296875 0.125 "/></g></g></g><g fill="#000000" fill-opacity="1"><g transform="translate(1382.817873, 1711.424896)"><g/></g></g><g fill="#000000" fill-opacity="1"><g transform="translate(1394.697846, 1711.424896)"><g><path d="M -1.625 0.296875 C -2.78125 0.296875 -3.359375 -0.0390625 -3.359375 -0.71875 C -3.359375 -1.113281 -3.117188 -1.753906 -2.640625 -2.640625 C -0.796875 -5.921875 0.851562 -8.832031 2.3125 -11.375 C 3.769531 -13.914062 5.0625 -16.0625 6.1875 -17.8125 C 10.9375 -25.457031 14.296875 -29.597656 16.265625 -30.234375 C 16.335938 -30.234375 16.394531 -30.242188 16.4375 -30.265625 C 16.476562 -30.285156 16.519531 -30.296875 16.5625 -30.296875 C 17.082031 -30.296875 17.421875 -29.878906 17.578125 -29.046875 C 17.460938 -28.203125 15.382812 -25.160156 11.34375 -19.921875 C 9.21875 -17.242188 7.566406 -15.035156 6.390625 -13.296875 C 5.210938 -11.554688 4.484375 -10.285156 4.203125 -9.484375 C 5.523438 -10.441406 6.941406 -11.457031 8.453125 -12.53125 C 9.972656 -13.613281 11.453125 -14.644531 12.890625 -15.625 C 14.335938 -16.601562 15.640625 -17.398438 16.796875 -18.015625 C 17.960938 -18.640625 18.863281 -18.992188 19.5 -19.078125 C 19.582031 -19.078125 19.679688 -19.085938 19.796875 -19.109375 C 19.921875 -19.128906 20.003906 -19.140625 20.046875 -19.140625 C 21.160156 -19.140625 21.71875 -18.617188 21.71875 -17.578125 C 21.71875 -17.296875 21.359375 -16.675781 20.640625 -15.71875 C 19.921875 -14.757812 18.820312 -13.28125 17.34375 -11.28125 C 14.695312 -7.757812 13.375 -5.117188 13.375 -3.359375 C 13.375 -2.441406 13.71875 -1.984375 14.40625 -1.984375 C 15.125 -2.023438 15.953125 -2.34375 16.890625 -2.9375 C 17.828125 -3.539062 18.773438 -4.28125 19.734375 -5.15625 C 20.703125 -6.039062 21.570312 -6.910156 22.34375 -7.765625 C 23.125 -8.628906 23.71875 -9.300781 24.125 -9.78125 C 24.476562 -10.132812 24.753906 -10.3125 24.953125 -10.3125 C 25.117188 -10.3125 25.203125 -10.234375 25.203125 -10.078125 C 25.203125 -9.753906 25.039062 -9.375 24.71875 -8.9375 C 24.238281 -8.34375 23.53125 -7.5625 22.59375 -6.59375 C 21.65625 -5.632812 20.632812 -4.664062 19.53125 -3.6875 C 18.425781 -2.707031 17.382812 -1.882812 16.40625 -1.21875 C 15.425781 -0.5625 14.695312 -0.234375 14.21875 -0.234375 C 11.863281 -0.234375 10.6875 -1.613281 10.6875 -4.375 C 10.6875 -5.9375 11.40625 -7.976562 12.84375 -10.5 C 13.40625 -11.457031 13.984375 -12.414062 14.578125 -13.375 C 15.179688 -14.332031 15.78125 -15.296875 16.375 -16.265625 C 11.257812 -13.703125 6.617188 -9.921875 2.453125 -4.921875 C 1.941406 -4.203125 1.40625 -3.429688 0.84375 -2.609375 C 0.28125 -1.785156 -0.21875 -1.09375 -0.65625 -0.53125 C -1.09375 0.0195312 -1.414062 0.296875 -1.625 0.296875 Z M -1.625 0.296875 "/></g></g></g><g fill="#000000" fill-opacity="1"><g transform="translate(1417.257812, 1711.424896)"><g><path d="M 2.578125 0.125 C 1.578125 0.125 0.796875 -0.34375 0.234375 -1.28125 C -0.316406 -2.226562 -0.59375 -3.140625 -0.59375 -4.015625 C -0.59375 -6.421875 1.144531 -9.78125 4.625 -14.09375 C 8.144531 -18.457031 10.984375 -20.640625 13.140625 -20.640625 C 15.179688 -20.640625 16.203125 -19.5625 16.203125 -17.40625 C 16.203125 -17.082031 16.171875 -16.738281 16.109375 -16.375 C 16.046875 -16.019531 15.976562 -15.640625 15.90625 -15.234375 C 15.976562 -15.117188 16.175781 -15.0625 16.5 -15.0625 C 17.582031 -15.0625 18.863281 -15.441406 20.34375 -16.203125 C 20.300781 -15.523438 18.71875 -14.546875 15.59375 -13.265625 C 16.039062 -11.941406 14.722656 -9.421875 11.640625 -5.703125 C 8.484375 -1.816406 5.785156 0.125 3.546875 0.125 Z M 3.65625 -1.6875 C 5.375 -1.6875 7.578125 -3.265625 10.265625 -6.421875 C 12.859375 -9.503906 14.15625 -11.722656 14.15625 -13.078125 C 13.519531 -13.441406 12.722656 -14.363281 11.765625 -15.84375 C 10.398438 -15.84375 8.4375 -14.203125 5.875 -10.921875 C 3.351562 -7.722656 2.132812 -5.265625 2.21875 -3.546875 C 2.257812 -2.304688 2.738281 -1.6875 3.65625 -1.6875 Z M -1.171875 7.6875 C -1.460938 7.6875 -1.753906 7.503906 -2.046875 7.140625 C -2.335938 6.785156 -2.484375 6.472656 -2.484375 6.203125 C -2.484375 5.691406 -1.863281 5.078125 -0.625 4.359375 C 0.613281 3.640625 1.5625 3.28125 2.21875 3.28125 C 2.300781 3.28125 2.363281 3.296875 2.40625 3.328125 C 2.363281 3.328125 2.078125 3.632812 1.546875 4.25 L 0.5 6.3125 C 0.0820312 7.226562 -0.472656 7.6875 -1.171875 7.6875 Z M 8.34375 -22.5 C 7.976562 -22.5 7.898438 -22.65625 8.109375 -22.96875 C 8.347656 -23.375 8.734375 -23.796875 9.265625 -24.234375 C 9.804688 -24.671875 10.378906 -25.09375 10.984375 -25.5 C 12.023438 -26.175781 12.960938 -26.753906 13.796875 -27.234375 C 14.640625 -27.710938 15.300781 -27.953125 15.78125 -27.953125 C 16.0625 -27.953125 16.421875 -27.722656 16.859375 -27.265625 C 17.296875 -26.804688 17.753906 -26.285156 18.234375 -25.703125 C 18.722656 -25.117188 19.1875 -24.609375 19.625 -24.171875 C 19.707031 -24.054688 19.75 -23.894531 19.75 -23.6875 C 19.75 -22.894531 19.304688 -22.5 18.421875 -22.5 C 18.140625 -22.5 17.847656 -22.609375 17.546875 -22.828125 C 17.253906 -23.046875 17.023438 -23.234375 16.859375 -23.390625 C 16.546875 -23.710938 16.15625 -24.148438 15.6875 -24.703125 C 15.226562 -25.265625 14.835938 -25.707031 14.515625 -26.03125 C 14.160156 -25.789062 13.800781 -25.539062 13.4375 -25.28125 C 13.082031 -25.019531 12.703125 -24.789062 12.296875 -24.59375 C 11.222656 -23.988281 10.34375 -23.488281 9.65625 -23.09375 C 8.976562 -22.695312 8.539062 -22.5 8.34375 -22.5 Z M 8.34375 -22.5 "/></g></g></g></svg>