<svg width="433" height="106" viewBox="0 0 433 106" fill="none" xmlns="http://www.w3.org/2000/svg">
<path d="M104.949 5.9C97.9492 5.9 91.0492 7 84.3492 8.49999C72.4492 11.2 61.0492 15.3 50.0492 20.4C40.4492 24.7 31.3492 29.7 22.6492 35.6C17.9492 38.8 13.4492 42.2 9.44922 46.3C7.74922 48 6.14922 49.8 4.94922 51.9C4.44922 52.9 3.94922 54 3.74922 55.1C3.64922 55.5 3.64922 55.9 3.64922 56.2C3.64922 57.6 4.24922 58.7 5.64922 59.5C7.14922 60.3 8.74922 60.8 10.3492 61.3C14.6492 62.4 19.0492 63.1 23.4492 63.7C33.1492 65.2 42.8492 66.3 52.4492 68.5C56.1492 69.3 59.8492 70.4 63.2492 72.2C65.2492 73.2 66.9492 74.7 68.1492 76.7C68.8492 77.8 69.1492 79 69.1492 80.1C69.1492 81.4 68.7492 82.6 67.9492 83.9C66.5492 86.1 64.6492 87.8 62.5492 89.3C57.9492 92.5 53.0492 94.9 47.8492 97C39.1492 100.6 30.2492 103.4 20.9492 105.1C18.7492 105.5 16.4492 105.9 14.1492 105.9C13.2492 105.9 12.2492 105.8 11.2492 105.6C9.74922 105.3 8.34922 104.8 7.34922 103.5C6.84922 102.9 6.54922 102.2 6.54922 101.5C6.54922 101 6.74922 100.5 6.94922 100C7.54922 98.9 8.44922 98 9.54922 97.3C10.9492 96.2 12.5492 95.5 14.2492 94.8C21.5492 91.8 29.0492 89.2 36.8492 87.7C38.4492 87.4 40.0492 87.2 41.6492 87C42.0492 87 42.3492 86.9 42.7492 86.9C43.4492 86.9 44.2492 87 44.9492 87.3C45.2492 87.5 45.5492 87.7 45.5492 88V88.1C45.5492 88.6 45.1492 88.6 44.7492 88.6C37.2492 88.6 30.4492 91.2 23.4492 93.6C20.1492 94.7 16.8492 96.1 13.7492 97.8C12.5492 98.4 11.3492 99.1 10.3492 100.1C10.0492 100.4 9.74922 100.7 9.44922 101.1C9.04922 101.6 8.94922 102 8.94922 102.4C8.94922 103 9.44922 103.4 10.4492 103.5C11.3492 103.6 12.3492 103.6 13.2492 103.6C14.4492 103.6 15.5492 103.6 16.7492 103.4C23.0492 102.5 29.1492 100.8 35.2492 98.8C41.4492 96.7 47.6492 94.2 53.4492 91C56.8492 89.1 60.1492 87.1 63.0492 84.5C64.1492 83.4 65.1492 82.3 65.8492 81C66.2492 80.1 66.4492 79.4 66.4492 78.7C66.4492 77.6 65.9492 76.7 64.7492 75.8C63.2492 74.7 61.6492 74 60.0492 73.3C55.3492 71.7 50.5492 70.7 45.7492 69.9C37.8492 68.5 29.8492 67.6 21.8492 66.4C17.8492 65.8 13.8492 65.1 9.94922 63.9C7.44922 63.1 5.04922 62.1 3.14922 60.2C1.44922 58.6 0.649219 56.9 0.649219 55.1C0.649219 54.1 0.849219 53 1.34922 51.8C2.24922 49.8 3.54922 48.1 4.94922 46.5C7.54922 43.4 10.5492 40.8 13.7492 38.3C21.1492 32.4 29.2492 27.4 37.6492 22.9C48.5492 17.1 59.7492 12.2 71.4492 8.49999C79.7492 5.79999 88.2492 3.7 96.9492 2.7C99.4492 2.4 101.949 2.3 104.449 2.3C106.949 2.3 109.449 2.4 111.949 2.9C113.449 3.2 114.949 3.7 116.349 4.39999C119.049 5.6 120.649 8.09999 120.649 10.9C120.649 12.3 120.249 13.9 119.249 15.3C117.749 17.4 115.849 19.2 113.949 20.8C109.349 24.6 104.349 27.6 99.2492 30.5C89.5492 35.9 79.4492 40.5 68.8492 44.1C64.7492 45.5 60.5492 46.6 56.2492 47.1C55.2492 47.3 54.1492 47.3 53.1492 47.3C52.6492 47.3 52.1492 47.1 51.6492 46.8C51.4492 46.6 51.2492 46.4 51.2492 46C51.3492 45.6 51.7492 45.6 52.0492 45.6C58.8492 45.4 65.1492 43.3 71.4492 41C83.8492 36.3 95.7492 30.6 106.749 23.2C109.349 21.4 111.849 19.5 114.149 17.4C115.449 16.3 116.449 15 117.449 13.6C117.849 13 118.249 12.3 118.549 11.6C118.649 11.1 118.749 10.7 118.749 10.3C118.749 9.49999 118.349 8.8 117.349 8.2C116.449 7.59999 115.349 7.2 114.249 6.9C111.549 6.19999 108.849 5.9 106.049 5.9H104.949ZM92.9445 37.2C92.6445 38.2 91.9445 39.2 90.9445 40C88.4445 42 86.3445 42.6 88.1445 45.7C88.3445 46.1 88.1445 46.4 87.7445 46.8C87.2445 47.2 87.1445 47.2 86.5445 46.9C84.3445 43.7 84.3445 42.6 87.8445 39.2C88.5445 38.5 88.9445 38.1 89.0445 37.8C89.1445 36.7 87.3445 35.9 86.3445 35.5C85.9445 35.3 84.9445 35.4 85.0445 34.8L85.2445 34.5C85.5445 34 86.8445 32.6 87.4445 32.8C89.7445 32.8 92.0445 34.1 92.7445 35.8C92.9445 36.2 92.9445 36.6 92.9445 37.2ZM72.8445 66.7C71.0445 66.7 69.6445 65.3 69.6445 63.5V63C69.8445 61.8 70.3445 60.7 70.9445 59.7C72.8445 56.2 75.4445 53.2 78.4445 50.6C79.1445 50 79.8445 49.5 80.5445 49.5C81.0445 49.5 81.4445 49.7 81.9445 50.1C82.2445 50.2 82.4445 50.3 82.7445 50.3C82.9445 50.3 83.2445 50.2 83.4445 50.2C83.8445 50.1 84.2445 50.1 84.6445 50.1C86.4445 50.1 87.5445 50.9 88.1445 52.6C88.1445 52.6 88.2445 52.6 88.3445 52.5C91.7445 51.3 92.8445 50.3 93.3445 47.3C93.3445 47.2 93.4445 47 93.4445 46.9C93.9445 46 94.2445 45.6 94.7445 45.5C94.8445 45.5 94.9445 45.6 95.0445 45.6C95.9445 45.8 96.8445 46.6 96.9445 47.4C96.9445 48.3 96.6445 48.9 96.2445 49.5C94.4445 51.8 91.9445 53.2 89.0445 53.9C88.8445 54 88.7445 54 88.5445 54C88.7445 54.3 88.9445 54.3 89.2445 54.3H89.5445C92.5445 54 95.5445 54.2 98.4445 53.9C99.9445 53.8 101.545 53.8 103.045 53.8H103.445C103.945 53.8 104.345 54 104.345 54.5V54.6C104.345 55.1 103.945 55.1 103.545 55.1L100.245 55.4C96.5445 55.6 92.9445 55.9 89.3445 56C88.3445 56.1 87.8445 56.5 87.2445 57.2C84.0445 61.7 79.6445 64.5 74.4445 66.3C74.1445 66.5 73.6445 66.5 73.2445 66.6C73.1445 66.6 72.9445 66.6 72.8445 66.7ZM85.0445 56.2C84.9445 56.2 84.8445 56.1 84.7445 56.1C83.1445 55.9 81.5445 55.7 80.3445 54.4C80.2445 54.2 80.0445 54.2 79.9445 54.2C79.6445 54.2 79.4445 54.4 79.2445 54.6C78.2445 55.6 77.1445 56.6 76.2445 57.7C74.7445 59.3 73.3445 61 72.3445 63C72.2445 63.3 71.9445 63.7 71.9445 64C71.9445 64.2 71.9445 64.3 72.1445 64.5C72.2445 64.6 72.4445 64.7 72.6445 64.7C72.9445 64.7 73.3445 64.5 73.6445 64.4C77.8445 63 81.6445 60.7 84.5445 57.3C84.8445 57 85.0445 56.9 85.0445 56.4V56.2ZM84.9445 54.3H85.5445C86.2445 54.2 86.6445 53.8 86.6445 53.1C86.6445 52.4 86.2445 52.1 85.5445 52H84.9445C83.8445 52 82.8445 52.2 82.0445 53C81.8445 53.2 81.7445 53.3 81.7445 53.5C81.7445 53.7 81.9445 53.9 82.3445 54C83.1445 54.2 84.0445 54.3 84.9445 54.4V54.3ZM142.586 61C144.786 60.7 146.586 60.1 148.386 59.5C154.386 57.7 160.286 55.9 166.186 54C166.386 54 166.486 53.9 166.686 53.9H166.986C167.286 53.9 167.486 54 167.686 54.3C167.686 54.4 167.786 54.5 167.786 54.6C167.786 54.9 167.486 55 167.186 55.2C166.586 55.5 165.986 55.8 165.286 56C163.586 56.6 161.786 57.1 159.986 57.7C155.586 59.2 151.286 60.6 146.886 62.1C145.786 62.5 144.586 62.8 143.386 63C143.186 63 142.986 63.1 142.886 63.1C141.986 63.1 141.386 62.6 140.786 61.9C140.486 61.5 140.386 61 140.386 60.6C140.386 60.2 140.486 59.7 140.786 59.3C141.386 58.3 142.086 57.3 142.886 56.5C145.086 54.4 147.286 52.4 149.386 50.1C149.186 50 148.986 50 148.886 50C148.486 50 148.186 50.1 147.886 50.2C143.986 51.8 140.186 53.8 136.486 55.9C133.786 57.4 131.086 59 128.386 60.5C127.686 60.9 127.086 61.2 126.386 61.4C126.186 61.5 125.886 61.5 125.686 61.5C125.086 61.5 124.586 61.3 124.186 60.8C123.886 60.5 123.786 60.1 123.786 59.7C123.786 59.4 123.886 59.1 123.986 58.8C124.486 57.9 125.086 57.1 125.586 56.3C127.486 53.9 129.486 51.7 131.586 49.4C136.286 44.3 140.986 39.2 145.986 34.4C154.286 26.3 162.886 18.5 172.186 11.6C176.986 7.99999 181.886 4.7 187.286 2.09999C188.586 1.5 189.986 0.899997 191.386 0.499996C191.886 0.399997 192.386 0.299999 192.986 0.299999H193.586C195.186 0.399997 196.286 1.59999 196.286 3.2V3.7C196.086 4.6 195.686 5.29999 195.286 6C194.186 7.59999 192.986 8.99999 191.686 10.4C185.686 16.7 178.986 22.1 171.886 27.1C164.686 32.2 157.286 36.9 149.486 40.9C146.586 42.3 143.686 43.7 140.686 44.6C139.986 44.8 139.386 45.1 138.886 45.6C135.186 49.4 131.486 53.2 128.086 57.3C127.786 57.6 127.486 57.8 127.486 58.3V58.5C128.186 58.5 128.686 58 129.286 57.7C134.086 54.9 138.786 52.1 143.786 49.7C145.386 49 146.886 48.3 148.486 47.8C148.986 47.6 149.486 47.5 149.986 47.4C150.186 47.4 150.386 47.3 150.486 47.3C151.186 47.3 151.786 47.7 152.286 48.3C152.486 48.7 152.586 49 152.586 49.3C152.586 49.8 152.386 50.3 152.086 50.8C151.486 51.4 150.986 52.1 150.386 52.7L144.886 58.2C144.086 59 143.386 59.8 142.586 61ZM143.286 41.5C144.986 41.1 146.486 40.4 147.986 39.6C156.086 35.4 163.986 30.7 171.486 25.4C177.886 20.9 183.886 15.9 189.286 10.1C190.686 8.6 192.186 7 193.286 5.2C193.786 4.5 194.286 3.8 194.286 2.99999C194.086 2.9 193.986 2.8 193.886 2.8C193.686 2.8 193.486 2.9 193.286 2.99999C191.286 3.49999 189.386 4.39999 187.586 5.5C179.386 10 172.086 15.6 164.886 21.5C158.986 26.4 153.486 31.5 147.986 36.7C146.386 38.2 144.786 39.9 143.286 41.5ZM175.37 56.1C174.27 56.4 173.57 56.9 172.97 57.4C171.07 58.5 169.37 59.7 167.37 60.7C166.87 60.9 166.37 61.2 165.87 61.4C165.67 61.5 165.37 61.5 165.17 61.5C164.07 61.5 163.17 60.7 163.17 59.5V59.1C163.17 58.5 163.37 57.9 163.67 57.4C165.07 54.6 166.87 52.1 168.97 49.8C169.47 49.3 169.97 49 170.47 49C170.97 49 171.37 49.2 171.77 49.6C172.27 50 172.47 50.4 172.47 50.7C172.47 51.1 172.27 51.4 171.87 51.8C170.37 53.5 168.87 55.2 167.47 56.9C167.07 57.5 166.67 58.1 166.07 58.8C166.97 58.8 167.47 58.4 167.97 58.1C171.27 56.3 174.27 54.2 177.37 52.1C177.97 51.7 178.57 51.4 179.27 51C179.47 50.9 179.67 50.8 179.87 50.8C180.27 50.8 180.57 51 180.87 51.4C180.97 51.7 181.17 51.9 181.27 52.2C183.87 51.1 184.77 50 185.27 47.3C185.27 47.2 185.37 47 185.37 46.9C185.87 46 186.17 45.6 186.67 45.5C186.77 45.5 186.87 45.6 186.97 45.6C187.87 45.8 188.77 46.6 188.87 47.4C188.87 48.3 188.57 48.9 188.17 49.5C186.37 51.8 183.87 53.2 180.97 53.9C180.67 54.1 180.47 54 180.27 54C180.07 54.3 179.77 54.6 179.57 54.9C178.47 56.2 177.47 57.4 176.77 58.9C176.67 59.1 176.67 59.3 176.67 59.5C176.67 59.8 176.77 59.9 177.17 59.9H177.47C178.57 59.7 179.67 59.4 180.67 59.1C185.27 57.6 189.87 56.2 194.37 54.5C194.67 54.3 195.07 54.2 195.47 54.1H195.67C195.97 54.1 196.17 54.3 196.27 54.5L196.37 54.7C196.37 55 196.07 55.1 195.87 55.3C195.47 55.6 194.97 55.8 194.47 56C189.77 57.9 184.97 59.7 180.07 61.3C179.37 61.5 178.57 61.7 177.87 61.8H177.37C175.57 61.8 174.47 60.7 174.47 59.1C174.47 58.7 174.57 58.2 174.67 57.8C174.77 57.6 174.87 57.4 174.97 57.1C175.07 56.9 175.17 56.6 175.37 56.1ZM173.47 38.6C174.57 38.6 175.47 39.2 176.27 39.9C176.67 40.2 177.07 40.6 177.37 40.9C178.27 41.7 178.77 42.1 179.57 42.1C179.97 42.1 180.47 41.9 181.17 41.6C182.67 40.9 184.07 39.9 185.47 38.9C185.87 38.7 186.27 38.4 186.67 38.2C186.87 38.1 186.97 38 187.17 38C187.47 38 187.67 38.2 187.87 38.4C188.07 38.6 188.17 38.8 188.17 39C188.17 39.3 187.97 39.5 187.77 39.7C186.07 41.2 184.47 42.7 182.67 44C182.07 44.5 181.37 44.7 180.57 44.7C179.97 44.7 179.37 44.5 178.77 44.3C177.67 43.8 176.67 43.1 175.77 42.3C175.27 41.8 174.97 41.6 174.67 41.6C174.37 41.6 174.07 41.8 173.57 42.3C172.67 43.1 172.07 44.1 171.47 45.1C171.17 45.5 171.07 46.2 170.47 46.2H170.17C169.47 46.1 168.67 45.3 168.57 44.5C168.57 44.4 168.47 44.4 168.47 44.3C168.47 44.2 168.57 44.1 168.57 44.1C168.87 41.7 170.07 40 172.07 38.8C172.47 38.6 172.87 38.6 173.47 38.6ZM203.885 56.1C202.785 56.4 202.085 56.9 201.485 57.4C199.585 58.5 197.885 59.7 195.885 60.7C195.385 60.9 194.885 61.2 194.385 61.4C194.185 61.5 193.885 61.5 193.685 61.5C192.585 61.5 191.685 60.7 191.685 59.5V59.1C191.685 58.5 191.885 57.9 192.185 57.4C193.585 54.6 195.385 52.1 197.485 49.8C197.985 49.3 198.485 49 198.985 49C199.485 49 199.885 49.2 200.285 49.6C200.785 50 200.985 50.4 200.985 50.7C200.985 51.1 200.785 51.4 200.385 51.8C198.885 53.5 197.385 55.2 195.985 56.9C195.585 57.5 195.185 58.1 194.585 58.8C195.485 58.8 195.985 58.4 196.485 58.1C199.785 56.3 202.785 54.2 205.885 52.1C206.485 51.7 207.085 51.4 207.785 51C207.985 50.9 208.185 50.8 208.385 50.8C208.785 50.8 209.085 51 209.385 51.4C209.585 51.7 209.785 52 209.785 52.4C209.785 52.6 209.685 52.8 209.485 53.1C209.085 53.7 208.585 54.3 208.085 54.9C206.985 56.2 205.985 57.4 205.285 58.9C205.185 59.1 205.185 59.3 205.185 59.5C205.185 59.8 205.285 59.9 205.685 59.9H205.985C207.085 59.7 208.185 59.4 209.185 59.1C213.785 57.6 218.385 56.2 222.885 54.5C223.185 54.3 223.585 54.2 223.985 54.1H224.185C224.485 54.1 224.685 54.3 224.785 54.5L224.885 54.7C224.885 55 224.585 55.1 224.385 55.3C223.985 55.6 223.485 55.8 222.985 56C218.285 57.9 213.485 59.7 208.585 61.3C207.885 61.5 207.085 61.7 206.385 61.8H205.885C204.085 61.8 202.985 60.7 202.985 59.1C202.985 58.7 203.085 58.2 203.185 57.8C203.285 57.6 203.385 57.4 203.485 57.1C203.585 56.9 203.685 56.6 203.885 56.1ZM244.398 61.3C245.798 61.2 246.698 60.8 247.698 60.5C253.798 58.6 259.998 56.7 266.098 54.8C267.398 54.4 268.698 54.1 269.998 53.8C270.398 53.7 270.798 53.6 271.098 53.6C271.398 53.6 271.698 53.7 271.798 54.1V54.3C271.798 54.5 271.598 54.6 271.398 54.8C271.198 54.9 270.998 54.9 270.798 55C263.598 57 256.698 59.5 249.698 61.9C248.298 62.4 246.898 62.9 245.498 63.2C245.098 63.3 244.698 63.3 244.298 63.3C243.798 63.3 243.198 63.2 242.698 63C241.998 62.6 241.698 62.1 241.698 61.5C241.698 61.2 241.698 60.9 241.898 60.5C242.098 59.9 242.498 59.4 242.898 58.9C245.898 55.3 249.498 52.3 253.498 49.7C254.298 49.2 255.098 48.8 255.998 48.6H256.398C257.398 48.6 257.998 49.1 258.598 49.8C258.898 50.2 258.998 50.6 258.998 50.9C258.998 51.4 258.898 51.8 258.598 52.2C258.398 52.7 257.998 52.9 257.698 52.9C257.298 52.9 256.998 52.7 256.798 52.2C256.598 51.7 256.298 51.6 256.098 51.6C255.898 51.6 255.598 51.7 255.298 51.9C253.098 53.1 251.198 54.6 249.298 56.2C248.098 57.2 246.898 58.2 245.798 59.3C245.398 59.9 244.798 60.4 244.398 61.3ZM283.262 45.9C282.362 45.9 281.762 45.4 281.262 44.9C279.862 43.3 278.462 41.7 277.162 39.9C277.062 39.7 276.862 39.5 276.862 39.2C276.862 39 276.762 38.9 276.762 38.7C276.862 38.5 277.062 38.3 277.162 38.1C277.662 37.5 278.462 37.2 279.062 37.2C279.262 37.3 279.562 37.3 279.862 37.5C280.262 37.8 280.662 38.2 281.062 38.5C282.162 39.6 283.062 40.9 284.362 41.8C284.862 42.2 285.062 42.3 285.462 42.3C285.862 42.3 286.262 42.1 286.962 41.6C288.762 40.3 290.562 39 292.262 37.8C292.662 37.6 293.062 37.2 293.462 37.2C293.562 37.2 293.662 37.3 293.762 37.4C293.962 37.6 293.962 37.7 293.962 37.9C293.862 38.2 293.362 38.5 293.062 38.8C291.362 40.3 289.762 41.7 288.062 43.2C287.162 43.9 286.262 44.6 285.462 45.2C284.762 45.6 283.962 45.9 283.262 45.9ZM280.462 55.5C279.662 55.9 278.862 56.4 278.062 56.8C276.062 57.9 274.162 58.9 272.262 60C271.562 60.3 270.862 60.6 270.062 60.7H269.662C268.362 60.7 267.462 59.8 267.462 58.6C267.462 58.3 267.562 58 267.662 57.7C267.762 57.3 267.962 57 268.262 56.6C269.562 54.5 271.262 52.8 273.462 51.5C274.662 50.9 275.762 50.5 276.962 50.5C278.162 50.5 279.362 50.9 280.462 51.9C280.762 52.2 281.062 52.3 281.362 52.3C281.662 52.3 281.962 52.2 282.362 51.9C283.862 50.8 285.462 49.8 287.062 48.7C287.362 48.5 287.662 48.4 287.962 48.4C288.262 48.4 288.662 48.6 289.062 49.1C289.262 49.4 289.362 49.6 289.362 49.9C289.362 50.2 289.262 50.5 288.962 50.8L286.562 53.2C284.962 54.8 283.362 56.6 282.062 58.5C281.762 59 281.162 59.5 281.162 60.1C281.162 60.3 281.262 60.4 281.362 60.6C281.462 60.8 281.662 60.9 281.862 60.9C282.262 60.9 282.862 60.6 283.362 60.5C288.562 59.2 293.562 57.4 298.662 55.8L305.262 53.7C305.562 53.6 305.862 53.5 306.162 53.5C306.262 53.5 306.462 53.5 306.562 53.6C306.862 53.7 307.062 53.8 307.062 54.1V54.3C307.062 54.5 306.862 54.6 306.662 54.7C306.462 54.9 306.162 55 305.862 55.1C299.762 57.2 293.662 59.3 287.662 61.4C285.962 62 284.162 62.6 282.362 62.8H281.862C281.362 62.8 280.862 62.7 280.362 62.5C279.262 62 278.662 61.2 278.662 60.2C278.662 59.8 278.662 59.4 278.862 59C279.262 57.9 279.962 56.8 280.662 55.8C280.562 55.7 280.562 55.6 280.462 55.5ZM270.862 58.3C273.962 57 278.262 54.6 279.062 53.6C278.862 53.5 278.562 53.5 278.362 53.5C276.362 53.5 273.162 55.5 270.862 58.3ZM323.016 52.4C321.616 52.8 320.616 53.3 319.616 53.8C314.016 56.4 308.816 59.6 303.616 62.8C303.116 63.1 302.616 63.4 302.116 63.6C301.816 63.7 301.616 63.8 301.416 63.8C301.016 63.8 300.616 63.6 300.216 63.3C299.916 62.9 299.716 62.5 299.716 62.2C299.716 61.9 299.816 61.7 299.916 61.4C300.116 60.7 300.616 60 301.016 59.4C303.816 55.6 307.016 52.2 310.216 48.9C310.816 48.2 311.316 47.9 311.716 47.9C312.016 47.9 312.316 48.1 312.616 48.3C313.316 48.8 313.716 49.3 313.716 49.8C313.716 50.3 313.416 50.7 312.916 51.3L305.716 58.5C305.416 58.8 305.016 59 304.816 59.4H305.116C305.416 59.4 305.716 59.3 305.916 59.1C310.616 56.3 315.216 53.6 320.016 51.2C321.016 50.7 322.116 50.2 323.216 49.9C323.516 49.8 323.716 49.8 324.016 49.8C324.516 49.8 325.016 50 325.416 50.5C325.816 51 326.016 51.4 326.016 51.9C326.016 52.2 325.916 52.5 325.716 52.9C325.416 53.5 325.016 54.1 324.616 54.7C323.916 55.8 323.116 56.8 322.416 57.8C322.216 58.1 321.916 58.5 321.916 58.8C321.916 59 321.916 59.1 322.016 59.2C322.116 59.3 322.316 59.4 322.416 59.4C322.716 59.4 323.116 59.2 323.416 59.1C323.916 59 324.416 58.8 325.016 58.6C329.416 57.2 333.816 55.5 338.316 54.3C338.816 54.2 339.316 54 339.816 54C340.216 54.1 340.516 54.3 340.516 54.7V54.9C340.516 55.2 340.316 55.3 340.016 55.4L339.116 55.7C334.416 57.2 329.916 59 325.316 60.7C324.416 61.1 323.516 61.4 322.616 61.6C322.416 61.6 322.116 61.7 321.916 61.7C320.416 61.7 319.516 60.7 319.516 59.3C319.516 59 319.516 58.7 319.616 58.4C319.716 57.7 320.116 57 320.516 56.4C321.216 55.1 322.016 53.9 323.016 52.4ZM378.523 61C380.723 60.7 382.523 60.1 384.323 59.5C390.323 57.7 396.223 55.9 402.123 54C402.323 54 402.423 53.9 402.623 53.9H402.923C403.223 53.9 403.423 54 403.623 54.3C403.623 54.4 403.723 54.5 403.723 54.6C403.723 54.9 403.423 55 403.123 55.2C402.523 55.5 401.923 55.8 401.223 56C399.523 56.6 397.723 57.1 395.923 57.7C391.523 59.2 387.223 60.6 382.823 62.1C381.723 62.5 380.523 62.8 379.323 63C379.123 63 378.923 63.1 378.823 63.1C377.923 63.1 377.323 62.6 376.723 61.9C376.423 61.5 376.323 61 376.323 60.6C376.323 60.2 376.423 59.7 376.723 59.3C377.323 58.3 378.023 57.3 378.823 56.5C381.023 54.4 383.223 52.4 385.323 50.1C385.123 50 384.923 50 384.823 50C384.423 50 384.123 50.1 383.823 50.2C379.923 51.8 376.123 53.8 372.423 55.9C369.723 57.4 367.023 59 364.323 60.5C363.623 60.9 363.023 61.2 362.323 61.4C362.123 61.5 361.823 61.5 361.623 61.5C361.023 61.5 360.523 61.3 360.123 60.8C359.823 60.5 359.723 60.1 359.723 59.7C359.723 59.4 359.823 59.1 359.923 58.8C360.423 57.9 361.023 57.1 361.523 56.3C363.423 53.9 365.423 51.7 367.523 49.4C372.223 44.3 376.923 39.2 381.923 34.4C390.223 26.3 398.823 18.5 408.123 11.6C412.923 7.99999 417.823 4.7 423.223 2.09999C424.523 1.5 425.923 0.899997 427.323 0.499996C427.823 0.399997 428.323 0.299999 428.923 0.299999H429.523C431.123 0.399997 432.223 1.59999 432.223 3.2V3.7C432.023 4.6 431.623 5.29999 431.223 6C430.123 7.59999 428.923 8.99999 427.623 10.4C421.623 16.7 414.923 22.1 407.823 27.1C400.623 32.2 393.223 36.9 385.423 40.9C382.523 42.3 379.623 43.7 376.623 44.6C375.923 44.8 375.323 45.1 374.823 45.6C371.123 49.4 367.423 53.2 364.023 57.3C363.723 57.6 363.423 57.8 363.423 58.3V58.5C364.123 58.5 364.623 58 365.223 57.7C370.023 54.9 374.723 52.1 379.723 49.7C381.323 49 382.823 48.3 384.423 47.8C384.923 47.6 385.423 47.5 385.923 47.4C386.123 47.4 386.323 47.3 386.423 47.3C387.123 47.3 387.723 47.7 388.223 48.3C388.423 48.7 388.523 49 388.523 49.3C388.523 49.8 388.323 50.3 388.023 50.8C387.423 51.4 386.923 52.1 386.323 52.7L380.823 58.2C380.023 59 379.323 59.8 378.523 61ZM379.223 41.5C380.923 41.1 382.423 40.4 383.923 39.6C392.023 35.4 399.923 30.7 407.423 25.4C413.823 20.9 419.823 15.9 425.223 10.1C426.623 8.6 428.123 7 429.223 5.2C429.723 4.5 430.223 3.8 430.223 2.99999C430.023 2.9 429.923 2.8 429.823 2.8C429.623 2.8 429.423 2.9 429.223 2.99999C427.223 3.49999 425.323 4.39999 423.523 5.5C415.323 10 408.023 15.6 400.823 21.5C394.923 26.4 389.423 31.5 383.923 36.7C382.323 38.2 380.723 39.9 379.223 41.5ZM400.707 74.5C400.607 75.2 400.307 75.8 399.507 76.2C399.307 76.3 399.107 76.4 398.807 76.4C398.407 76.4 397.907 76.1 397.607 75.7C397.307 75.4 397.007 75.2 396.707 74.9C396.307 74.4 396.107 73.9 396.107 73.4C396.107 72.6 396.607 71.8 397.507 71.4C397.707 71.3 398.007 71.3 398.207 71.3C399.407 71.5 400.707 73.1 400.707 74.5ZM399.407 66.7C397.607 66.7 396.207 65.3 396.207 63.5V63C396.407 61.8 396.907 60.7 397.507 59.7C399.407 56.2 402.007 53.2 405.007 50.6C405.707 50 406.407 49.5 407.107 49.5C407.607 49.5 408.007 49.7 408.507 50.1C408.807 50.2 409.007 50.3 409.307 50.3C409.507 50.3 409.807 50.2 410.007 50.2C410.407 50.1 410.807 50.1 411.207 50.1C413.307 50.1 414.507 51.1 414.907 53.4C415.107 54.1 415.407 54.3 415.807 54.3H416.107C419.107 54 422.107 54.2 425.007 53.9C426.507 53.8 428.107 53.8 429.607 53.8H430.007C430.507 53.8 430.907 54 430.907 54.5V54.6C430.907 55.1 430.507 55.1 430.107 55.1L426.807 55.4C423.107 55.6 419.507 55.9 415.907 56C414.907 56.1 414.407 56.5 413.807 57.2C410.607 61.7 406.207 64.5 401.007 66.3C400.707 66.5 400.207 66.5 399.807 66.6C399.707 66.6 399.507 66.6 399.407 66.7ZM411.607 56.2C411.507 56.2 411.407 56.1 411.307 56.1C409.707 55.9 408.107 55.7 406.907 54.4C406.807 54.2 406.607 54.2 406.507 54.2C406.207 54.2 406.007 54.4 405.807 54.6C404.807 55.6 403.707 56.6 402.807 57.7C401.307 59.3 399.907 61 398.907 63C398.807 63.3 398.507 63.7 398.507 64C398.507 64.2 398.507 64.3 398.707 64.5C398.807 64.6 399.007 64.7 399.207 64.7C399.507 64.7 399.907 64.5 400.207 64.4C404.407 63 408.207 60.7 411.107 57.3C411.407 57 411.607 56.9 411.607 56.4V56.2ZM411.507 54.3H412.107C412.807 54.2 413.207 53.8 413.207 53.1C413.207 52.4 412.807 52.1 412.107 52H411.507C410.407 52 409.407 52.2 408.607 53C408.407 53.2 408.307 53.3 408.307 53.5C408.307 53.7 408.507 53.9 408.907 54C409.707 54.2 410.607 54.3 411.507 54.4V54.3ZM413.607 37.7C414.307 37.7 415.007 38 415.607 38.5C416.207 39.1 416.907 39.8 417.507 40.5C418.807 42 420.007 43.5 421.207 45C421.407 45.3 421.807 45.6 421.807 45.9C421.807 46.1 421.707 46.2 421.507 46.4C421.407 46.5 421.207 46.6 421.107 46.6C420.707 46.6 420.407 46.2 420.107 45.9C418.707 44.7 417.407 43.4 416.007 42.1C415.407 41.5 415.107 41.2 414.707 41.2C414.407 41.2 414.007 41.4 413.407 41.8C411.907 42.7 410.607 43.9 409.107 45C408.607 45.3 408.107 45.7 407.607 46C407.307 46.1 407.007 46.2 406.807 46.2C406.107 46.2 405.507 45.9 405.107 45.3C405.007 45.1 404.907 44.9 404.907 44.7C404.907 44.5 405.007 44.3 405.107 44.2C405.307 43.9 405.507 43.7 405.707 43.5C407.507 41.8 409.407 40.2 411.307 38.7C412.007 38.2 412.707 37.7 413.607 37.7Z" fill="url(#paint0_linear_0_68)"/>
<defs>
<linearGradient id="paint0_linear_0_68" x1="12.0257" y1="88.5" x2="5.59785" y2="-2.2214" gradientUnits="userSpaceOnUse">
<stop stop-color="#0A77CB"/>
<stop offset="0.57" stop-color="#49D5DF"/>
<stop offset="1" stop-color="#3840EF"/>
</linearGradient>
</defs>
</svg>
